<?xml version="1.0" encoding="utf-8"?>
<!-- Generator: Adobe Illustrator 23.1.0, SVG Export Plug-In . SVG Version: 6.00 Build 0)  -->
<svg version="1.1" id="ARTWORK" xmlns="http://www.w3.org/2000/svg" xmlns:xlink="http://www.w3.org/1999/xlink" x="0px" y="0px"
	 viewBox="0 0 1280.16 462.67" style="enable-background:new 0 0 1280.16 462.67;" xml:space="preserve">
<style type="text/css">
	.st0{fill:#2C3F57;}
</style>
<g id="CC780024_7_">
	<g id="FROZEN_II_7_">
		<g>
			<path class="st0" d="M1148.6,205.86c0.17,0,0.4,0.06,0.67,0.16c1.09-0.31,2.12-0.54,3.04-0.68
				C1152.34,204.63,1149.58,205.46,1148.6,205.86z"/>
			<path class="st0" d="M1227.28,412.54c-1.22-0.74-2.49-4.48-2.84-4.96c-0.94-1.31-1.28-0.46-2.34-1.17
				c-2.87-1.91-1.86-6.17-3.49-6.96c-0.01-1.06-1.36-4.22-1.44-4.22c-0.17-2.41,1.18-5.77,0.46-7.73c-0.82-2.24-0.66-10,0.44-12.2
				c-1.39,0-0.09-10.33-0.21-10.77c-1.01-0.16-0.8-0.16-1.81,0c0.44-1.46,0.9-5.7,0.02-5.59c0-0.63,0.49-3.47,1.6-3.47
				c0.1-0.95-1.05-6.78-0.23-6.78c0-1.35,0.15-9.58-2.1-9.58c0-0.98,1.64-6.54,2.1-8.41c0-3.26-0.37,0.22-0.37-3.52
				c-0.46-1.38-0.49-11.1-0.67-11.1c0-0.56,0.67-2.17,0.81-3.83c1-12.07,0.06-26.25,0.32-27.82c-1.28-0.16-1.73,0.39-1.95-1.85
				c-0.29-2.87,0.39-23.13,0.42-25.17c0.04-3.93,2.07-10.8,1.22-10.34c0.03-2.46,0.53-9.4,0.4-12.65c-0.05-1.3,0.3-5.34,0.53-7.67
				l2.34-5.61c6.69-9.85,0.47-2.34,5.06-9.16c6.22-6.18,9.67-7.05,14.56-9.45c0.73-0.72,2.85-1.54,3.58-1.79
				c0.66-1.92-17.78-1.08-20.02-1.13c-5.95-0.12-9.52,0.43-13.98,0.38c0.01-0.46-23.21-0.6-26.06-0.31
				c-4.24,0.43-6.29-0.89-10.27-0.71c-1.19,1.64-6.84,3.58-6.75,0.45c-1.55-0.05-14.19,1.5-14.14,0.2
				c-8.7-0.31-11.75-0.75-20.27,0.14c-3.27,0.42-6.61,0-11.09-0.37c-4.69,0.18-7.65,0.92-11.41,0.25
				c-4.39-0.63-15.54-0.14-19.3,0.07c-1.42-0.33-14.24,0.85-14.21-0.01c-4.52-1.45-2.12,1.59-6.44,0.19
				c-2.44-0.79-12.44-2.59-14.19,1.13c4.93,2.48,7.87,5.66,12.58,9.01c0.73,0.03,1.54,1.41,1.25,1.69c1.36,0.93,3.4,2.18,4.21,3.51
				c1.22,0.9,1.73,0.89,1.92,0.76c-0.03,0.12-0.06,0.3-0.06,0.6c2.35,1.89,4.94,9.9,5.45,12.93c0.85,2.74,1.25,6.39,1.59,9.98
				c-0.21,0.96-0.93,3.1-0.8,3.98c0.39,2.57,1.14,4.97,1.4,7.4c-0.04,1.1-0.06,2.43-0.08,3.97c0.06,0.04,0.11,0.08,0.17,0.12
				c0,0.64,0,1.28,0,1.92c-0.45,2.15,0.42,4.66-0.6,6.17c0.06,0.46,0.09,0.5,0.2,0.8c0.12,0.05,0.27,0.09,0.4,0.13
				c0,0.06,0,0.13,0,0.19c0.04,0.18,0.07,0.09,0.1-0.16c0.58,0.2,1.21,0.37,1.89,0.43c0.21,1.89,0.06,4.48,0,6.37
				c0,1.13,0,2.26,0,3.39c-0.56,2.02-2.02,4.22-2.59,6.17c-0.47,1.61,1.88,7.08,1.36,9.69c-0.95,4.73-1.2,9.82-1.16,15.6
				c-0.07,3.52-0.13,13.89-0.2,17.41c-0.07,1.33-0.13,2.66-0.2,3.98c0.76,1.61,2.04,3.8,2.99,5.38c0.6,1.01,0.65,2.35,1.39,3.19
				c-0.33,0.72-1.07,1.08-1.79,1.39c-0.02,4.42,0.06,14.26,0.2,18.36c0.02,0.57-0.04,1.33-0.09,2.13c-0.53,0.29-1.22,0.6-2.05,0.91
				c0.09,3.25-0.02,6.22,0.26,9.03c-0.28,0.23-0.57,0.46-0.91,0.67c0.02,2.21,0.33,4.43,0.71,6.64c-0.16,0.56-0.33,1.17-0.5,1.82
				c-0.99,3.78-2.03,8.63-1.93,9.63c-1.22,0.01-3.22,7.81-4.27,9.59c-1.8,3.05-3.15,7.12-5.71,8.27c-1.01,0.83-2.51,3.5-4.38,5.01
				c-8.28,5.61-4.01,5.08-14.43,8.01c2.83,1.92,9.47,2.13,12.26,2.1c0-0.09,19.72,1.73,21.3,1.71c-0.01-0.94,7.85-1.47,8.3-0.97
				c1.64,1.77,22.38,0.86,22.41,3.68c3.02,0.67,13.72-4.91,15.13-0.84c0.66,0.21,3.73,2.31,3.73,2.65c1.19,0.42,4.96-1.13,6.6-1.33
				c4.27-0.52,4.33-0.45,8.91,0.82c1.06,0.28,4.09,1.87,4.2,1.76c0.73-0.72,6.06-0.53,7.58-0.55c0-0.36,23.61,2.48,27.87,2.26
				c-1.02,0.05,12.84,1.23,13.95,1.64c0.02,1.51,7.09,0.53,8.34,0.92c0.02,1.95,13.85,3.05,16.05,3.03
				c-0.01-0.7,4.53,1.28,5.26,1.34c2.26,0.18,8.37,2.02,10.34,0.7c0.08-0.16,3.93,1,4.38,0.53
				C1237.96,428.78,1235.24,422.95,1227.28,412.54z M1172.87,335.71c-0.01-0.04-0.03,0.02-0.05,0.09c-0.24,0.4-1.38,2.23-1.41,2.38
				c-1.15-0.03,0.25,19.11,0.21,21c-0.69,5.57-0.73,15.22-0.47,15.63c0.96,1.52-0.52,11-2.17,17.79c-0.91,3.73-1.87,6.64-2.52,6.97
				c-0.64,1.65-1.02,2.95-1.32,4.05c-1.13,4.24-0.93,5.58-8.49,12.45c-1.36,1.24-7.76,5-8.41,3.74c-1.23,0.01-9.18-4.18-7.92-5.47
				c-4.4-3.2-3.37-5.71-5.9-6.94c-0.88-1.47-2.42-6.37-4.22-6.65c-2.36-1.52-1.8-0.19-2.52-7.72c-0.18,0-0.06-15.14-0.25-22.61
				c-0.04-1.79-0.11-3.14-0.2-3.74c-0.21-1.39-0.45-3.56-0.7-4.44c-0.4-1.42-1.29-0.5-1.64-1.64s-0.14-3.23-0.23-5.37
				c-0.08-1.98,2.14-1.72,1.87-3.97c-0.09,0,0.54-22.36,0.36-25.26c0.54,0.01,0.61-2.85,0.51-6.85c-0.21-8.97-1.75-23.63-0.12-24.26
				c0.8-0.31-0.03-9.87-0.26-10.94c-2.58-0.06,1.61-17.47-0.44-17.52c-0.13-2.53-0.25-5.83-0.87-7.4c-0.47-1.18,1.68-5.02,0.97-5.82
				c-1.76-2.01,0.79-15.6-0.23-19.05c-0.21-2.26,0.19-11.38,2.82-11.29c0.34-0.93,2.19-3.32,2.96-3.3c0.16-4.52,4.84-5.23,6.46-8.22
				c3.17-2.62,7.16-4.38,10.56-5.35c-0.27-0.1-0.51-0.16-0.67-0.16c-0.14-0.01-0.23,0.04-0.27,0.12c-0.01,0.03-0.04,0.04-0.04,0.07
				c0-0.04,0.03-0.05,0.04-0.07c0.04-0.08,0.12-0.12,0.27-0.12c0.97-0.4,3.74-1.23,3.71-0.52c-0.92,0.15-1.95,0.38-3.04,0.68
				c2.09,0.74,6.92,3.8,7.8,4.13c-0.01,0.29-0.52,0.84,0.35,0.92c1.79,0.16,2.08,2.75,3.75,2.81c0.12,0.42,0.19,0.48,3.57,3.82
				c1.52,2.03,4.12,5.78,4.98,6.25c-0.02,0.68,1.49,8.67,1.85,8.68c-0.02,0.5-0.21,23.99-0.69,27.49
				c-0.34,2.48,1.18,31.84-0.14,31.81c-0.56,1.57,1.96,4.9,2.14,4.9c-0.13,5.59,0.39,23.94-1.24,27.8
				C1170.31,327.78,1173.46,332.53,1172.87,335.71z"/>
		</g>
		<g id="FROZEN_7_">
			<path class="st0" d="M716.98,341.12c0.01-0.04,0.02-0.07,0.03-0.11C717.01,340.29,716.99,340.9,716.98,341.12z"/>
			<path class="st0" d="M401.47,406.45c-1.1-0.5-2.39-1.59-3.58-1.99c-0.6,0-1.19,0-1.79,0c-0.83-0.34-5.43-3.33-5.97-3.98
				c-0.57,0.07-0.86,0.13-1.19,0.4c-0.41-0.08-0.38-0.05-0.6-0.2c-0.51-0.71-8.48-5.5-9.04-6.14c-0.46-0.85-12.35-9.61-15.35-11.23
				c-3.68-2-6.79-7.3-10.13-9.79c-1.66-1.24-4.67-3.13-5.77-4.78c-0.98-1.46-2.01-4.34-2.79-5.97c-0.6-0.2-1.54-0.25-1.99-0.6
				c-0.2-0.42,0.2-1.73,0.6-2.19c-0.52-2.89-3.88-4.34-4.78-6.97c-1.13-0.2-2.26-0.4-3.39-0.6c-0.1-0.08-2.55-6.26-2.59-6.57
				c-0.09-0.78,0.87-1.2,0.6-2.19c-0.47-1.72-2.46-3.69-3.39-5.18c-2.82-4.53-5.85-7.36-7.99-12.38c-3.49-1.41-8.38-1.52-11.95-2.59
				c-0.93-0.28-1.9-0.13-2.59-0.6c-1.7,0.11-1.93,1.26-2.99,1.99c0,0.07,0,0.13,0,0.2c-0.68-0.7-1.19-2.07-1.59-2.99
				c-1.99-0.75-4.95-1.02-6.37-2.39c-0.07,0-0.13,0-0.2,0c0-0.07,0-0.13,0-0.2c5.94,0.06,12.67-0.34,17.52-1.79
				c1.15-0.35,2.11-0.21,2.99-0.8c1.25-0.62,2.09-3.61,2.59-4.98c0.83,0,1.19,0.02,1.59,0.4c2.32-0.02,2.5-1.44,3.78-2.39
				c2.9-2.15,5.12-4.16,7.17-7.17c0.59-0.87,2.74-3.23,1.79-4.78c0-1.39,0-2.79,0-4.18c0.42-0.85,3.57-1.85,4.18-3.39
				c0.26-1.66,0.53-3.32,0.8-4.98c1.29-4.69,2.07-9.85,2.19-15.73c0.03-1.52,0.66-3.82,0.2-5.58c-0.52-1.99-1.64-3.82-2.59-5.38
				c-0.56-0.92-0.67-1.88-1.39-2.59c0.12-0.95,0.46-1.65,1-2.19c-0.06-3.16-2.61-5.17-3.98-7.17c-1.88-2.76-3.41-5.46-5.38-8.16
				c-1.52-2.1-4.11-3.77-5.97-5.58c-1.5-1.46-2.89-4.22-4.98-4.98c-0.52-0.33-1.42-0.02-2.19-0.2c-2.05-0.47-8.11-0.71-9.56-1.59
				c-2.05,0.01-2.69-1.52-3.39-2.79c-5.55,0.02-12.87,1.05-17.72,0c-3.74-0.81-5.53,0.45-7.57-2.19c-2.72,0.07-5.44,0.13-8.16,0.2
				c-2.13,0.54-4.74,2.27-7.77,1.59c-5.19-1.16-11.85-1.37-17.13-0.2c-1.79,0-3.58,0-5.38,0c-1.51,0.34-3.53-0.89-4.58-0.25
				c-1.25,0.76-2.86,3.38-4.98,2.99c-1.71-0.32-4.44,0.28-6.37-0.2c-1.64-0.41-3.04-1.6-4.58-1.99c-1.06,0.07-2.13,0.13-3.19,0.2
				c-2.48-0.55-5.54-0.42-8.16-0.8c-3.87-0.55-8.43,0-8.56,0c0.14,2.12,1.83,2.87,2.79,4.18c1.95,2.66,4.52,6.22,6.17,9.01
				c0.93,1.58-0.41,4.42,0.4,6.37c0.49,1.19,2.25,2.64,2.19,3.78c-0.28,0.81-0.91,1.21-1.59,1.59c0.05,3.39,0.34,7,1,9.96
				c0.53,2.39,0.9,8.55,0.57,10.75c-0.44,2.98,0.56,6.75,0.2,9.36c-0.42,3.04-0.24,6.49-0.24,9.96c0,1.53,0,3.05,0,4.58
				c-0.21,0.94-0.37,2.26-0.4,3.38c0.93,0.93-0.16,1.86,0.77,2.79c-0.03,2.46-0.23,4.23-0.75,5.97c-0.48,1.61,0.1,5.59,0.39,7.17
				c-0.07,0.46-0.13,0.93-0.2,1.39c0.61,3.63,0.8,8.24,1.2,12.15c0.11,1.11,0.17,1.26,0.42,2.43c0.47,2.16-1.78,9.23-2.76,9.76
				c0.15,1.79,1.47,2.12,1.99,3.39c0.45,1.09,0.34,6.38,0.2,7.17c0,0.86,0,1.73,0,2.59c-0.21,0.66-1.1,1.89-1.59,2.39
				c0.22,1.14,1.54,2.25,2.39,2.79c-0.18,1.82-1.31,2.75-1.59,4.18c-0.07,5.64-0.13,15.34-0.2,20.98
				c-0.44,1.96-1.54,23.19-2.01,25.23c-0.26,1.13-0.72,2.33-1.32,3.54c-0.58,1.17-1.29,2.34-2.07,3.46
				c-0.19,0.27-0.39,0.54-0.59,0.81c-1.48,1.95-3.16,3.66-4.72,4.75c-0.55,0.6-1.43,1.08-1.27,1.45c3.54-0.31,9.33,0.07,12.3-0.75
				c0.8-0.04,1.59-0.09,2.39-0.13c1.12-0.43,3.99-2.08,5.9-1.75c1.2,0.21,2.41,1.16,3.47,1.4c1.19-0.2,0.92-0.45,2.11-0.64
				c0.68,0.08,2.06,0.38,2.62,0.45c1.37,0.19,3.08-0.57,4.75-0.66c1.74-0.1,4.76,0.72,6.19,0.05c0.8-0.37,1.44-1.51,2.29-1.92
				c1.1-0.54,2.99-0.31,3.93-1.02c1.1,0.13,1.99,1.31,2.32,2.27c4.57-0.26,9.15-0.51,13.72-0.77c1.78-0.1,4.29-0.38,5.85-0.29
				c0.66-0.04,1.11,0.25,1.51,0.08c-0.53-4.24-6.75-6.21-9.07-8.87c-3.85-4.41-2.87-28.07-3.32-35.13c-1.19-0.52-0.32-2.67-1.2-3.37
				c0.13-1.46,0.27-2.92,0.4-4.38c0.07-0.23,0.47-0.07,0.4-0.6c-0.22-1.67-1.87-2.7-2.39-3.98c0-2.26,0-4.51,0-6.77
				c0.38-1.74-0.24-4.38,0.2-6.37c0.71-3.19,0.4-7.13,0.4-10.75c0-1.13,0-2.26,0-3.39c-0.8-3.13-2.6-3.91-3.44-6.81
				c0.07-1.66,1.58-3.32,1.65-4.98c0-4.53,0.47-9.45-0.2-13.14c-0.3-1.66,0.66-3.87,0-4.98c0-2.65,0-5.31,0-7.96
				c0.41-0.9,1.77-1.05,2.19-2.19c0.33-0.72,0-3.75,0-5.18c0-4.5,0.17-8.49,0.6-12.55c0.1-0.95-0.41-2.79,0.2-3.78
				c0.07-2.49-0.41-3.24-1.79-4.18c0.13-5.64-0.7-11.29-0.57-16.93c2.51-0.03,5.53-0.05,8.16-0.6c1.55-0.33,3.67,0.07,4.98-0.2
				c2.42-0.51,3.12,1,3.78-1.59c4.11-0.02,7.6,0.02,10.95,1c0.86,0.13,1.73,0.26,2.59,0.4c1.07,0.58,1.83,2.27,2.99,2.79
				c0.46,0,0.93,0,1.39,0c0.7,0.37,2.24,2.83,2.79,3.58c0.86,1.18,2.13,2.19,2.99,3.39c1.13,1.57,2.06,3.39,3.39,4.78
				c-0.09,1.04-1.04,1.76-0.6,2.99c0.4,1.11,1.51,2.27,1.99,3.39c1.29,2.98,2.2,6.26,2.99,9.56c0.82,3.45-1.2,7.08-2.19,9.56
				c-3.19,7.98-2.15,11.95-13.74,11.95c-2.01,0-8.94,0.56-10.16-0.2c-1.26,0.11-1.24,0.89-1.39,1.99c-3.9-0.07-8.28-0.4-11.55-1.19
				c-0.99-0.24-1.89,0.05-2.59-0.4c-0.83,0.04-0.91,0.14-1.39,0.4c0.22,1.28,0.9,1.87,1.39,2.79c1.65,3.05,3,6.03,4.98,8.76
				c0.47,0.46,0.93,0.93,1.39,1.39c0.68,1.27,0.75,2.88,1.59,3.98c0.24,0.16,0.96,0.24,1.2,0.4c0.2,0.07,0.4,0.13,0.6,0.2
				c-0.07,1-0.79,2.03-0.4,3.19c0.21,0.63,1.05,1.27,1.39,1.79c0.85,1.3,1.18,2.65,1.99,3.98c1.07,1.75,2.92,1.5,4.01,3.23
				c1.05,1.66,1.74,3.32,2.79,4.98c0.28,0.44,1.02,0.89,1.19,1.39c-0.07,1-0.13,1.99-0.2,2.99c0.42,1.23,1.87,2.37,2.59,3.39
				c1.42,2.02,2.56,3.96,3.98,5.97c0.59,0.84,1.62,1.55,2.19,2.39c1.39,2.03,2.94,5.29,4.78,6.77c-0.05,0.46-0.04,0.56-0.2,0.8
				c0,0.86,0,1.73,0,2.59c0.26,0.52,1.36,1.16,1.79,1.59c0.77,0.79,1.27,1.74,1.99,2.59c0.9,1.07,2.34,1.86,3.19,2.99
				c0.47,0.63,2.42,2.61,2.59,2.99c0.07,0.86,0.13,1.73,0.2,2.59c0.69,1.26,2.57,2.18,3.58,3.19c0.97,0.96,1.76,2.08,2.59,3.19
				c1.81,2.39,20.05,14.28,21.74,16.82c2.39,0,4.78,0,7.17,0c0.86,0.31,1.67,1.47,2.39,1.99c2.05,1.49,5.95,4.22,8,5.75
				c1.07,0.8,2.08,2.27,3.38,2.79c1.39,0.2,2.79,0.4,4.18,0.6c2.49,0.68,5.54,1.31,8.17,1.99c1.47,0.38,3.56-0.04,4.58,0.8
				c1.27-0.21,1.52-1.06,2.39-1.39c2.32,0.33,4.65,0.66,6.97,1c1.86,0,3.72,0,5.58,0c4.03,0.89,11.71,0.23,15.73,0.2
				c2.31-0.02,10.37-0.47,11.58-0.41c0.77-0.03,1.15-0.11,1.56-0.24c-3.39-1.91-4.31-2.31-6.01-3.13
				C404.24,407.98,402.96,407.13,401.47,406.45z"/>
			<path class="st0" d="M192.77,234.64c0.07-1.76-0.26-2.08-1.39-2.59c-0.03-2.41,0.03-5.45,1.59-6.37c0.07-3.65,0.13-7.3,0.2-10.95
				c-0.15-0.44-0.85-0.93-1-1.39c0.07-1.4,0.13-2.79,0.2-4.18c0.02-1.75-0.27-7.49,0.4-8.56c0-0.53,0-1.06,0-1.59
				c-1.89-0.36-5.29-0.39-7.17,0c-2.21,0.46-5.45-0.1-7.77,0.4c-2.63,0.57-5.98-0.31-8.36,0.2c-2.79,0-5.58,0-8.36,0
				c-4.58,0-10.36-0.71-14.54,0.2c-3.33,0.72-7.75-0.29-10.95,0.4c-4.38,0-8.76,0-13.14,0c-1.65,0-5,0.44-6.17,0.2
				c-1.41-0.29-2.89-1.58-4.18-1.99c-3.38,0.13-6.77,0.27-10.16,0.4c-2-0.43-6.84-0.26-8.96,0.2c-1.61,0.35-3.81-0.1-5.18,0.2
				c-3.72,0-7.44,0-11.15,0c-0.16,0.05-0.64,0.56-0.8,0.6c-1.1,0.29-1.27-0.59-1.79-0.8c-0.75-0.3-3.22-0.03-3.39,0
				c-1.59,0.23-3.98-0.1-5.38-0.4c-1.39,0-0.93,0-2.33,0c-1.92-0.02-1.97-0.16-3.72-0.52c-1.66,0.07-3.32,0.13-4.98,0.2
				c-0.4,0.4,0.49,0.8,0.1,1.2c-1.54,0.63-4.22-0.2-6.17-0.2c-3.45-0.07-6.9-0.13-10.35-0.2c-1.19,0-3.38-0.3-4.18,0.2
				c-1.07,0.23-1.49,0.27-1.99,0.4c0.15,1.94,1.87,2.58,2.79,3.78c1.48,1.96,3.72,3.25,5.18,5.18c0.37,0.49,0.56,1.19,1,1.59
				c0.7,0.63,1.84,0.61,2.39,1.39c0.42,0.61,0.41,1.35,0.8,1.99c0.62,1.01,1.85,2.2,2.19,3.39c0.14,0.49-0.19,0.74-0.2,1
				c-0.03,0.75,0.31,1.71,0.6,2.39c1.16,2.75,1.11,5.42,1.9,8.76c-0.2,5.18-0.4,10.35-0.6,15.53c-0.21,0.96-0.93,3.11-0.8,3.98
				c0.5,3.26,1.58,6.24,1.49,9.36c0,3.78,0,7.57,0,11.35c0.26,1.18,0.25,3.4,0,4.58c-0.45,2.15,0.42,4.66-0.6,6.17
				c0.06,0.46,0.09,0.49,0.2,0.8c0.67,0.28,1.52,0.52,2.39,0.6c0.21,1.89,0.06,4.48,0,6.37c0,1.13,0,2.26,0,3.39
				c-0.56,2.02-2.02,4.22-2.59,6.17c-0.47,1.61,0.72,5.95,0.2,8.56c-0.95,4.73-0.04,10.95,0,16.73c-0.07,3.52-0.13,7.04-0.2,10.55
				c-0.07,1.33-0.13,2.65-0.2,3.98c0.76,1.61,2.04,3.8,2.99,5.38c0.6,1.01,0.65,2.35,1.39,3.19c-0.33,0.72-1.07,1.08-1.79,1.39
				c-0.02,4.42,0.06,9.25,0.2,13.34c0.05,1.57-0.5,4.65,0.2,5.77c0.07,3.92-0.72,5.53-2.99,6.97c0.08,7.48,3.4,15.07,1.89,22.1
				c-0.4,1.88-2.61,12.43-4.98,20.92c-0.34,1.21-0.03,2.54-0.37,3.64c-0.44,1.41-0.87,0.38-1.29,1.48c-0.36,0.94-1.38,3.9-1.72,4.52
				c-0.18,0.33-0.35,0.64-0.52,0.95c-3.66,6.71-5.43,9.45-7.65,12.28c-0.03,0.16,4.04-0.51,4.94-1.33c4.49,0,6.38-0.4,8.78-1.65
				c1.84,0.1,1.47,1.53,3.3,1.09c3.7-0.88,10.99-5.65,14.99-4.74c2.52,0.07,10.44-2.04,12.96-1.98c5.08,1.2,12.4-1.71,17.84-2.95
				c1.5-0.34,9.33-0.69,10.11-1.12c0.2-0.07,7.66,0.07,7.86,0c-0.54-1.25-2.23-3.14-4.24-5.16c-0.64-0.64-1.32-2.62-1.99-3.27
				c-0.45-0.43-0.9-0.87-1.35-1.29c-2.7-2.57-5.2-4.9-5.73-5.9c-2.58-4.91-2.96-17.51-2.28-24.94c0.21-2.31-0.94-8.61-0.09-9.96
				c0.09-3.06-0.17-4.09-1.99-5.18c-0.02-1.77,0.23-5.33,0.6-7.17c0.01-1.68,2.5-3.51,3.58-4.18c0.13-2.07-0.3-5.14-0.8-7.37
				c-0.76-3.37-0.5-6.86-1.2-9.96c0-0.86,0-1.73,0-2.59c-0.63-2.77-0.18-4.79-2.11-6.17c0.04-3.26,0.68-6.28,1-9.16
				c0.07,0-0.14-0.05,0.05-0.03c0.82-0.61,4.74-0.37,6.92-0.37c2.66-0.13,5.31-0.27,7.97-0.4c0.74,0.23,1.38,1.16,1.99,1.39
				c0.27,0.1,5.97-0.6,5.97-0.6c3.36,0.08,4.42-0.05,5.78-1.99c2.4,0.15,4.56,0.75,7.17,0.2c1.13-0.24,2.77,0.32,3.58-0.2
				c2.46-0.08,3.16,0.3,3.98,1.79c2.7,0.01,2.94-0.05,5.25,0.28c1.43,0.2,2.2-0.87,2.59-0.8c2.41,0.43,7.41,2.47,9.48,3.5
				c1.66,0.82,5.07,2.3,5.49,2.07c-0.31-2.86-2.52-6.69-3.7-9.04c-0.49-0.97-1.34-1.78-1.31-2.36c0.84-1.19,1.12-1.47,2.11-2.22
				c1.8-1.37,4.1-2,6.17-3.19c0.81-0.46,1.55-1.15,2.59-1.39c0.23-0.12,1.3,0.78,1.69,1.12c1.91-0.33,3.35-2.14,4.88-2.91
				c2.53-1.27,4.55-2.35,7.12-3.55c0.71-0.33,2.33-1.62,2.74-1.97c-3.16-2.46-3.2-1.71-4.7-2.6c-0.72-0.43-1.44-0.7-2.17-1.16
				c-1.83-1.15-2.73-1.77-4.57-2.91c-1.11-0.69-1.83-1.75-3.31-2.07c-0.37,0.4-0.76,0.64-1.39,0.8c-2.88-1.68-5.39-2.13-7.51-3.64
				c-0.94-0.67-3.7-1.99-3.51-2.73c1.7-3.75,3.99-7.84,4.63-10.88c-0.18-0.18-6.24,1.46-8.04,2.23c-2.47,1.05-4.74,2.85-7.57,3.59
				c-2.32-0.07-4.65-0.13-6.97-0.2c-2.17,0-4.28-0.05-5.97-0.4c-1.08-0.22-2.62,0.29-3.39-0.2c-3.85,0-7.7,0-11.55,0
				c-0.63,0.47-0.26,2.17-1,2.59c-0.24,0.14-3.81-0.54-4.18-0.6c-0.7,0.41-4.14-0.16-5.18-0.4c-1.46-0.13-2.92-0.27-4.38-0.4
				c-2.38-0.61-5.86,0.16-8.44,0.01c-0.06-3.23-1.19-6.18-1.71-8.58c-0.37-1.69,0.78-5.35,0.8-7.57c0.77-0.32,1.54-0.63,2.19-1
				c0-5.04,0-10.09,0-15.13c-0.25-0.72-1.18-1.38-1.59-1.99c-1.06-1.59-1.68-3.62-2.99-4.98c0.32-3.16,2.04-5.47,2.39-8.76
				c4.8-0.24,12.15-1.01,16.73-0.2c0.99,0.17,2.5-0.48,3.39,0.2c1.12-0.24,1.18-1.1,2.19-1.39c0.81-0.23,1.82,0.15,2.39-0.2
				c3.32,0,6.64,0,9.96,0c0.3,0.16,0.33,0.76,0.4,1.19c0.82,0.16,3.03,0.13,3.78,0.6c1.41-0.01,1.87-0.55,2.39-1.39
				c1.77,0.08,3.94,1.1,4.78,2.19c1.14-0.19,1.47-0.92,2.39-1.19c4.91-0.13,9.82-0.27,14.74-0.4c2.39,0,4.78,0,7.17,0
				c0.36,0.14,0.96,0.89,1.39,1c1.39-0.2,2.79-0.4,4.18-0.6c0.66,0.07,1.33,0.13,1.99,0.2c0.3-0.07,0.64-0.53,1.2-0.4
				c0.46,0.11,1.15,0.8,1.59,1c3.3,1.46,6,3.3,8.76,5.18c2.43,1.65,6.92,3.32,8.56,5.57c0.57-0.02,0.85-0.08,1.2-0.2
				c0.51-2.82-0.74-6.6-1.39-9.16C193.03,237.26,193.43,235.68,192.77,234.64z"/>
			<path class="st0" d="M694.67,223.2c-0.17-0.05-0.64-0.54-0.81-0.58c-2.59,0.24-5.17,0.48-7.76,0.72
				c-0.46-0.12-1.14-0.65-1.6-0.77c-0.98-0.25-2.72-0.71-3.38-0.55c-2.97,0.69-6.51,0.7-9.75,0.75c-3.19,0.12-6.37,0.23-9.55,0.35
				c-1.33-0.05-3.64-0.46-4.78,0.27c-1.75,0.05-2.72-0.54-3.41-1.54c-3.52,0.05-7.03,0.11-10.55,0.17
				c-0.28,0.14-0.63,1.12-0.77,1.41c-7.43,0.25-14.86,0.5-22.29,0.75c-0.4-0.39,4.74-1.65,4.34-2.04c-2.19,0.1-4.38,0.2-6.57,0.3
				c-4.55-0.61-10.24-0.04-15.14,0.04c-4.25,0.07-9.36-0.03-12.14,0.59c-1.53,0.02-3.05,0.05-4.58,0.07
				c-4,0.96-15.69,1.03-19.51,0.03c-2.25-0.59-4.77-0.29-6.4-1.49c-1.08,0.14-1.38,0.88-1.56,1.82c-1.51-0.22-8.78-1.13-9.73-2.07
				c-0.81,0.17-0.81,0.26-0.98,1.01c-1.73-0.04-3.55-0.5-4.6-1.32c-1.43-0.47-1.69-0.52-2.36-0.57c0.12,0.24,0.63,0.89,1.18,1.39
				c3.08,2.77,6.77,6.71,10.86,12.03c0.79,1.03,2.95,2.7,3.74,3.74c1.92,2.51,2.22,4.27,4.87,5.99c-0.03,0.94,2.77,2.64,2.62,3.37
				c1.38,1.25,2.62,3.35,3.74,4.87c1.96,2.63,0.75,1.87,2.62,4.12c1.57-0.91,1.74-2.23,2.62-4.12c0.3-0.66,6.71-2.46,7.11-2.99
				c0.74-0.99,3.66,0.51,4.58-0.28c1.59-1.36,3.92-1.05,6.35-1.69c2.03-0.54,4.27-0.25,6.76-0.7c3.08-0.56,12.95-1.21,15.34,0.56
				c1.58-0.04,2.58-0.64,3.36-1.45c1.37,0.09,2.1,0.98,2.81,1.75c3.38-0.49,0.83-4.67,4.51-5.27c-0.12,1.18-1.18,3-0.54,3.99
				c0.25,0.52,0.42,0.62,1.01,0.78c0.43,0.21,1.3-0.02,2.19-0.03c2.5-0.05,7.42-0.17,8.39,1.26c1.35-0.18,7.71-3.71,7.91-3.71
				c-0.07,0.07-0.13,0.14-0.2,0.2c-0.51,1.45-2.09,2.28-2.93,3.43c-1.98,2.71-4.08,5.18-6.05,7.86c-0.92,0.81-1.83,1.62-2.75,2.43
				c-0.31,1.46-0.62,2.93-0.93,4.4c-4.08,1.89-3.65,4.24-5.85,7.66c-1.03,1.59-2.52,3.2-3.51,4.84c-2.09,3.46-2.42,4.99-4.44,8.36
				c-1.67,2.78-2.66,6.33-4.84,8.64c-0.36,0.24-1.42,0.19-1.79,0.43c-1.27,0.68-1.66,3.32-2.32,4.62c-1.28,2.52-2.68,4.83-3.86,7.63
				c-0.22,0.54-1.05,1.29-1.16,1.81c-0.12,0.52,0.59,1.78,0.24,2.59c-0.98,1.01-1.96,2.02-2.94,3.03c-1.71,1.77-3.02,3.83-4.89,5.45
				c0.2,1.01,1,2.13,1.64,2.76c-0.3,0.86-0.91,0.98-1.37,1.61c-1.25,1.72-2.57,3.48-3.7,5.24c-2.59,4.03-4.72,10.24-7.95,13.47
				c-0.23,0.16-0.95,0.26-1.19,0.42c-2.06,0.13,1.9,3.19,1.05,4.46c-2.1,3.14-3.6,6.7-5.62,10.05c-1.06,1.76-4.67,5.96-5.77,7.67
				c-2.39,3.72-3.87,4.18-6.32,7.78c-1.05,1.54-6.92,5.34-7.93,6.9c-0.19,0.53,3.36,1.88,3.17,2.42c-0.66,0.41-5.06,0-5.72,0.41
				c-1.29,1.67-10.49,10.49-11.98,11.98c-3.19,3.19-5.31,3.92-6.3,4.48c-0.33,0.07-0.66,0.14-0.99,0.21
				c-0.51,0.53-0.87,2.29-1.15,2.93c-0.67-0.03-1.2-0.09-1.6-0.37c-2.55,0.13-4.67,1.99-6.3,3.23c-2.22,1.69-6.73,3.85-11.29,6.21
				c2.58-0.01,6.17,1.16,8.41,1c0.99-0.07,1.33-0.3,1.79-0.43c1.19-0.08,2.39,0.15,3.58,0.07c1.77-0.46,4.03-0.26,5.75-0.76
				c1.62-0.47,2.78-0.19,4.17-0.86c1.78-0.86,5.26,0.37,7.15-0.91c4.36-1.17,8.06-1.17,9.73-1.67c3.65-0.12,7.3-0.25,10.95-0.37
				c1.18-0.02,3.38-0.36,4.19,0.13c3.71-0.18,10.01-2.8,11.22-0.18c3.01-0.05,12.77-0.53,15.35-1.12c1.89-0.44,4.85,3.11,6.29,2.19
				c2.06-0.03,4.12-0.06,6.17-0.1c0.01-0.01,6.88-0.76,7-0.97c6.4-0.16,3.54-0.34,10.55,0.87c3.56,0.24,6.24,0.33,8.45-1.64
				c1.93,0.38,2.62,1.59,3.69,1.98c0.79,0.29,4.85-0.07,5.79-0.11c3.57-0.14,8.36,1.44,10.6-0.66c1.46,0.21,1.98,1.07,2.91,1.54
				c1.45,0.73,5.01,0.6,6.73,0.94c1.49,0.29,9.9-1.4,13.03-0.82c1.3,0.11,3.19,0.64,5.45,0.54c0.47-0.12,0.19,0,0.31-0.65
				c-0.04-4.4,2.69-9.65,2.96-14.96c0.16-3.19,3.72-3.99,3.85-3.98c-0.02-0.11-0.06-0.47-0.14-0.91c0.02-1.12-0.15-4.51,0-5.24
				c0.12-2.75,2.25-5.25,2.41-8.3c0.05-1.03-0.33-4.91-0.53-5.24c0-0.13-0.39-0.56-0.39-0.69c-0.67,1.58-4.17,4.87-4.55,5.2
				c-1.84,1.65-4.44,3.68-7.08,4.28c-0.73-0.04-1.46-0.08-2.19-0.11c-1.53,0.27-4.66,2.17-5.65,1.87c-0.86-0.26-8.85-0.08-9.97-0.2
				c-0.43-0.05-3.17-0.16-4.18-0.21c-2.32-0.12-4.83,2.78-7.16,2.66c-0.42,0.38-0.37-2.63-0.78-2.25c-0.7,0.32-6.93,0.01-7.91-0.37
				c-1.45-0.55-2.4-0.05-4.82,0.37c-3.75,0.65-9.18-1.26-15.35-1.26c-1.71,0-14.36,0.67-17.09,0.57c0.54-2.22,8.08-10.54,9.18-12.37
				c0.93-1.55,5.46-6.48,6.23-8.22c0.86-1.96,2.41-3.6,3.3-5.63c0.07-0.07,0.13-0.13,0.2-0.2c3.2-0.03-2.07-2.07-0.85-3.99
				c3.11-4.86,6.94-9.53,9.93-14.5c0.94,0.01,2.6,0.15,3.18-0.25c1.68-0.14,1.47-1.01,2.16-2.03c1.51-2.23,0.7-5.32,2.2-7.64
				c2.49-3.86,4.73-8.05,7.18-12.06c1.14-1.87,3.72-4.71,4.48-6.64c-0.01-0.8-0.03-1.59-0.04-2.39c0.14-0.42,1.74,0.61,1.95,0.25
				c1.32-2.17,2.17-4.48,3.88-6.23c-0.18-1.47-0.93-2.02-1.05-3.57c1.03-0.15,3.09-0.45,3.77-1.05c1.53-0.8,4.47-7.4,5.63-9.25
				c3.59-5.72,7.17-11.74,10.68-17.49c1.3-2.14,3.35-6.75,5.45-7.85c-0.08-0.94-0.64-2.64-0.26-3.78c0.23-0.68,1.17-1.43,1.56-2.02
				c0.44-0.66,0.53-1.33,0.96-2.01c0.81-1.26,2.09-2.4,2.93-3.63c2.28-3.34,4.72-6.64,6.81-10.07c0.61-1.01-0.1-3.51,0.57-4.47
				c1.42-2.06,5.3-7.54,5.04-8.44C699.37,222.82,696.74,223.81,694.67,223.2z"/>
			<path class="st0" d="M691.33,388.47h-0.01C691.33,388.51,691.33,388.52,691.33,388.47z"/>
			<path class="st0" d="M837.86,381.42c-0.57,0.1-6.85,1.16-7.15,1.07c-0.68-0.2-3.01-0.9-3.72-0.79c-0.41,0.07-0.93,0.76-1.29,0.87
				c-1.39,0.41-6.91,1.61-8.06,1.23c-0.65-0.22-1.36-0.06-1.76-0.38c-1.04,0-1.52,0.45-2.1,0.98c-1.15-0.52-2.29-1.04-3.44-1.56
				c-0.11-0.21-0.22-0.42-0.33-0.63c-0.69-0.34-4.82,0.69-5.69,0.81c-1.98-0.2-3.96-0.41-5.94-0.61c-3.61-0.3-8.64,1.09-12.22,0.37
				c-0.78-0.16-1.32,0.86-1.91,1c-1.03,0.24-4.53-0.26-5.13-0.73c-3.03-0.23-5.79,0-6.57-2.13c-2.99-0.32-10.3,1.47-12.61,0.96
				c-0.33-3.22,0.77-18.15,0.01-21.39c-0.39-1.65,0.68-6.14-0.11-7.42c-0.04-1.75,0.91-2.2,1.95-2.82
				c-0.05-2.79-0.16-5.51-0.72-7.95c-0.36-1.55,0.02-0.45-0.28-1.75c-0.35-1.52,0.24-3.28-0.47-4.37c0.15-0.96,0.63-1.26,1.37-1.61
				c0.04-1.46,0.09-2.92,0.13-4.38c1.41-0.03,2.14-0.38,2.98-0.64c2.25-0.04,4.51-0.07,6.77-0.11c1-0.02,1.99-0.03,2.99-0.05
				c1,0.45,2.01,0.9,3.01,1.35l4.32-0.8l1.04-1.21l3.67,1.47l6.5-0.1c1-0.22,2.45,0.26,3.16-0.2c2.17-0.09,2.79,0.25,3.53,1.56
				c2.38-0.01,2.59-0.06,4.64,0.22c1.26,0.17,1.94-0.78,2.28-0.72c2.13,0.37,6.55,2.13,8.39,3.03c1.47,0.72,4.49,1.99,4.86,1.8
				c-0.29-2.53-2.27-5.89-3.32-7.96c-0.44-0.86-1.19-1.57-1.17-2.07c0.74-1.06,0.98-1.31,1.85-1.97c1.58-1.22,3.6-1.79,5.43-2.85
				c0.71-0.41,1.36-1.02,2.28-1.25c0.2-0.11,1.16,0.68,1.5,0.98c1.68-0.3,2.95-1.91,4.29-2.6c2.22-1.14,3.99-2.1,6.26-3.17
				c0.63-0.29,2.05-1.44,2.4-1.75c-2.8-2.15-2.83-1.49-4.16-2.26c-0.64-0.37-1.28-0.61-1.92-1.01c-1.62-1-2.42-1.54-4.05-2.54
				c-0.98-0.6-1.63-1.53-2.93-1.8c-0.33,0.35-0.67,0.57-1.23,0.71c-2.55-1.46-4.77-1.84-6.65-3.17c-0.83-0.58-3.28-1.74-3.11-2.39
				c1.48-3.32,3.48-6.95,4.02-9.63c-0.16-0.16-5.5,1.33-7.08,2.02c-2.17,0.94-4.17,2.55-6.66,3.21c-2.05-0.05-4.1-0.09-6.15-0.13
				c-1.91,0.01-3.78-0.02-5.27-0.32l-4.36,1.01l-5.55-1.35l-1.78,1.21l-3.36-0.25c-1.08-0.03-2.11-0.14-3-0.32
				c-0.83-0.17-1.82,0.17-2.39-0.16c-0.95,0.2-1.89,1.16-2.36,1.83c-0.83-0.37-1.58-1.59-2.03-2.36c-1.97,0.05-5.23,0.35-6.58-0.49
				c-0.4,0.01-0.8,0.01-1.2,0.02c-0.4-1.84-0.56-4.37-0.7-6.36c-1.34-0.06-1.55-0.64-2.41-1.16c0.28-3.19,0.56-9.61,0.84-12.8
				c-0.08-1.9,0.61-2.19,1.75-2.82c0-4.81-1.36-10.39-0.46-14.56c0.39-1.79-0.14-4.16,0.71-5.59c0-0.13,0-0.27-0.01-0.4
				c2.87-0.64,7.22-0.64,10.97-0.74c1.26-0.09,2.52-0.17,3.78-0.26c1.24,0.37,2.6,1.46,3.81,1.73c0.69,0.15,2.38-0.3,2.98-0.44
				c2.42-0.58,5.56-0.1,7.36-0.51c1.97-0.45,7.16,0.36,8.56-0.53c1.59-0.02,3.19-0.05,4.78-0.07c1.39-0.59,2.06-2.48,3.54-3.04
				c0.2-0.16,0.05-0.07,0.4-0.21c0.61,1.05,1.23,2.11,1.84,3.16c9.09-0.13,17.91-1.23,24.52,1.6c1.38,0.59,4.93,3.51,5.85,4.69
				c0.61,0.78,0.55,0.57,1.38,1.58l1.07,1.13l0.16-1.16c0.07-3.65,0.15-7.3,0.23-10.96c0.16-0.79,0.56-3.33,0.13-4.38
				c-0.25-0.62-1.07-1.32-1.23-2.17c-0.45-2.36,1.48-7.54,0.66-8.97c-0.01-1.81,0.36-8.09-0.34-9.16c-0.45-0.31-6.07-0.25-6.97-0.17
				c-1.97,0.02-1.76,0.74-2.77,1.52c-0.06,0.07-0.13,0.13-0.19,0.2c-0.6-0.17-1.05-1.15-1.62-1.37c-0.8,0.01-1.59,0.03-2.39,0.04
				c-3.54-0.52-7.96,0.75-11.55-0.02c-1.04-0.22-3.68-0.25-4.18,0.07c-2.72,0.04-5.44,0.09-8.16,0.13
				c-0.28,0.14-0.63,1.13-0.78,1.41c-1.44-0.14-1.59-1.02-2.61-1.35c-2.59,0.04-5.18,0.08-7.77,0.12
				c-5.42,0.08-9.28-0.79-13.18-1.98c-0.87-0.27-1.58-0.11-2.2-0.56c-1.34,0.1-3.68,2.56-4.33,3.45c-1.81,0.05-8.07,0.61-9.16-0.05
				c-4.27,0.14-6.7,0.62-8.59-1.86c-11.24,0.21-22.77,0.55-34.44,0.74c-3.25,0.05-6.43-0.37-9.62-0.59c-1.23-0.09-5.47-0.31-5.5-0.1
				c0.52,1.26,2.3,3.29,3.26,4.18c0.55,0.51,1.15,1.09,1.61,1.7c1.2,1.6,2.28,5.22,3.16,7.11c1.25,2.7,2.02,6.59,2.25,9.89
				c0.02,1.46,0.05,2.92,0.07,4.38c0.11,0.48,0,1.9,0.24,2.59c0.2,0.6,1.03,1.18,1.22,1.77c0.46,1.39-0.44,4.31-0.71,5.39
				c-0.12,0.47,0.18,1.03,0.22,1.19c0.34,1.54,0.12,4.15-0.11,5.38c0.08,1.19,0.17,2.39,0.25,3.58c0.07,3.37,0.05,6.63-0.45,9.57
				c-0.26,1.56,0.89,5.14,1.24,5.99c0.45,1.09,0.09,8.06-0.05,9.16c-0.15,1.13,0.34,2.79-0.14,3.59c0.07,1.29,0.62,1.88,1.43,2.37
				c0.12,9.68-0.15,17.81-0.58,26.5c-1.41,0.28-2.29,0.16-3.38,0.65c0.06,1.77,0.95,7.64,0.14,8.96c-0.04,2.48-0.01,3.86,1.47,4.76
				c0,0.16,0.01,0.25,0.01,0.3c-0.27,0.88-1.13,1.82-0.9,2.86c0.24,1.11,0.77,2.81,1.06,3.97c-0.11,1.66-0.21,3.32-0.32,4.98
				c-0.04,3.38,1.05,16.96,0.64,19.8c-0.62,4.36-2.03,11.02,0,13.61c-0.32,2.03-1.63,2.4-2.19,3.78c-0.22,1.51-0.44,3.02-0.67,4.54
				c-0.71,1.74-2.15,3.93-3.86,6.08c-0.52,0.66-1.07,1.31-1.63,1.94c-2.13,2.42-4.42,4.56-6.11,5.66c-0.69,0.53-1.28,0.85-1.28,0.88
				c-0.01,0.05,0.77,0.09,1.58,0.09c4.53,0.01,11.33-2.04,16.76-1.48c1.92,0.2,3.83,0.39,5.74,0.59c0.16,0.05,0.68,0.38,1.17,0.32
				c0.59-0.08,1.52-0.5,2.06-0.59c3.36,0.42,6.72,0.83,10.08,1.24c1.99,0.21,4.35-1.64,5.37-1.27c0.8,0.29,1.23,1.29,2.04,1.61
				c0.79,0.08,1.58,0.16,2.37,0.25c2.52,0.27,7.5-1.9,10.19-1.02c4.69,0.48,11.03-0.48,15.72,0c1.11,0.14,2.75,0.47,3.72,0.78
				c1.12,0.12,2.24,0.23,3.36,0.35c2.63,0.27,5.26,0.11,7.49,0.77c1.94,0.57,2.78-1.36,4.68-0.72c2.29,0.77,5.04-0.1,7.1,0.71
				c0.75,0.29,1.91,0.07,2.4,0.05c2.93-0.13,6.64-3.08,9.05-2.3c1.49,0.48,2.8-0.3,3.94,0.61c1.15,0,2.21-0.58,2.78-1.31
				c0.96,0.26,1.48,0.86,1.84,1.59c5.08,0.51,9.86,0.45,14.22,1.14c1.71,0.27,6.66,0.16,7.68,0.95c1.17,0.14,2.69,0.38,3.59,0.17
				c0.27-1.97,0.54-2.97,0.81-4.95c0.02-0.83-0.02-2.52,0.39-3.76c0.19-0.58,1.21-4.25,1.08-4.69c-0.09-0.33-0.78-0.86-0.87-1.29
				c-0.08-0.41,0.89-7.07,0.95-7.31c0.85-3.34,1.63-9.77,2.19-12.33l0.09-1.99c-1.67,0.96-2.97,1.77-4.26,2.51
				C844.37,379.49,841.17,380.87,837.86,381.42z M716.98,341.12c0.01-0.23,0.02-0.83,0.03-0.11
				C717.01,341.05,716.99,341.09,716.98,341.12z"/>
			<polygon class="st0" points="503.77,219.81 507.72,220.97 508.89,222.6 511.91,223.99 514.47,225.16 516.33,227.95 
				520.28,229.11 522.14,231.2 522.61,233.3 527.26,235.62 530.05,237.95 532.38,238.18 532.51,236.82 524.93,230.04 520.52,226.31 
				514.23,221.9 499.35,215.62 489.13,212.82 500.51,218.41 			"/>
			<path class="st0" d="M541.5,251.47c0.23,0.48,1.53,3.66,1.7,4.17c0.68-0.31,0.18-3.31,0.86-3.63c-1.88-3.49-3.57-5.33-5.47-7.48
				c-0.3-0.25-1.68-1.91-1.98-2.16c-0.37,0.22-2.43-2.13-2.67-2.08c-0.78,1.21,3.82,5.06,4.6,6.32
				C539.52,248.17,540.7,249.81,541.5,251.47z"/>
			<path class="st0" d="M514.72,394.5c-2.38,0.63-4.8,1.9-7.02,2.77c-1.61,0.3-3.18,1.88-4.78,2.18c0.04-0.29-0.29-2.53-0.19-2.83
				c4-2.19,7.82-2.82,11.79-5.05c5.05-2.84,11.33-5.21,16.52-7.88c0.53-2.09,1.07-4.18,1.61-6.27c0.2-0.95,0.06-2.18,0.56-2.93
				c0.65-0.97,2.76-1.41,3.47-2.54c0.9-0.09,2.93,0.41,3.63,0.75c1.69-2.72,1.98-2.61,2.74-4.25c1.03-2.22,3.88-5.41,4.98-7.57
				c0.49-0.97,0.62-2.16,1.27-3.01c0.96-1.26,3.3-3.15,3.97-4.39c1.65-3.05,2.2-6.58,3.33-10.04c0.96-2.97,2.07-8.32,2.78-11.4
				c0.39-1.7,0.47-3.11,0.75-4.87c0.75-4.64,0.4-8.18,0.94-13.48c0.24-2.4-0.38-5.56-0.13-7.86c-0.09-0.82-0.19-1.65-0.28-2.47
				c0.19-1.88,0.01-4.02-0.39-6.2c-0.79-4.7-2.6-9.62-3.74-12.47c-0.76-1.9-1.07-5.48-2.21-6.89c-0.02-0.13-0.04-0.26-0.06-0.38
				c-0.48-3.01-1.67-1.49-2.85-3.06c-0.53-0.71-0.44-1.51-0.81-2.41c-0.7-1.71-1.95-5.6-3.11-6.8c-1.11-1.1-7.86-0.77-9.33-1.63
				c-0.61-0.39-0.93-0.85-1.06-1.34c-0.15-1.59,1.36-3.51,1.81-4.83c0.05-0.17,0.02-0.35-0.05-0.54c0-0.77-1.1-1.74-1.55-2.31
				c-1.21-1.55-1.82-3.45-3.08-5.02c-0.5-0.62-2.5-1-3.24-1.78c-0.66-0.7-2.02-1.59-2.42-2.41c-0.06-0.12-0.1-0.24-0.13-0.36
				c-0.08-0.73,0.15-1.45-0.02-2.01c-0.01-0.23-0.06-0.44-0.19-0.63c-1.07-1.58-3.27-2.59-4.57-3.95c-3.66-3.86-8.63-6.73-13.5-9.04
				c0.39-0.34,1.18-0.45,1.63-0.48c0.4,0.03,1.34,0.21,1.32,0.1c-0.06-0.42-1.47-1.49-1.81-1.69c-1.43-1.08-4.08-1.8-5.64-2.4
				c-3.31-1.26-6.95-2.86-10.61-3.62c-0.66-0.14-1.41-0.23-2.2-0.32c-0.04,0.11-0.08,0.21-0.11,0.32c-2.47-0.65-3.8-0.91-6.5-1.44
				c-0.43-0.11-1.08-0.28-1.37-0.25c-0.08,0.32,0.17,0.46,0.35,0.72c0.54,0.42,0.81,0.8,1.91,1.03c1.37,0.29,2.81,0.62,4.14,1.06
				c0.73,0.24,1.33,0.45,2.22,0.82c0.01,0.12,0.03,0.25,0.04,0.37c-0.58,0.07-1.13,0.14-1.67,0.2c-0.04,0.13-0.09,0.24-0.14,0.37
				c-2.28,0.26-4.28,0.34-6.05-0.57c-0.89-0.26-1.72-2.53-2.17-3.33c-0.63,0.17-0.73,0.62-1.55,0.53c-2.99-0.32-6.23-3.26-9.35-3.64
				c-1.68-0.2-3.08,1.17-5.08,0.94c-4.68-0.53-14.39-0.21-18.84-0.85c-1.54-0.22-4.18,0.3-5.4-0.28c-0.61,0.2-2.55,3.55-2.67,4.12
				c-1.89,0.58-8.01,2.66-9.57,4.11c-1.71-0.02-1.16-1.74-2.4-2.23c-0.83-0.25-3.25,0.99-4.14,1.37
				c-3.92,1.67-11.08,2.69-11.95,6.56c-0.91,0.01-2.46,0.07-3.08-0.36c-2.22,0.43-2.79,2.58-4.44,3.37
				c-0.59,0.28-1.24-0.14-1.61,0.01c-1.13,0.43-2.8,3.33-3.82,4.19c-1.46,1.24-3.21,1.8-4.66,3.04c-2.16,1.83-3.88,4.11-5.93,6.05
				c-1.88,1.78-4.42,6.33-6.67,7.38c-0.04,0.82-0.97,0.39-1.1,1.23c-0.2,1.31-1.98,2.6-2.62,3.7c-1.32,2.28-2.99,4.3-4.26,6.57
				c-0.73,1.31-1.28,3.21-2.38,4.21c0.14,0.96,0.41,1.6,0.95,2.04c-0.3,1.2-1.56,1.43-2.05,2.38c-0.02,0.3-0.05,0.6-0.08,0.9
				c-0.57,1.27-1.26,2.96-1.65,4.31c-0.43,1.5-0.66,3.21-0.91,4.58c-0.22,1.21,0.16,2.46-0.32,3.44c0.07,0.72,0.46,1.57,0.68,2.02
				c0.04,0.01,0.04,0.01,0.06,0.01c0.01,0.01,0,0.01,0.03,0.03c0.01,0,0.01-0.01,0.02-0.02l0,0c0.43-0.35,1.31-1.68,1.81-2.69
				c1.2-2.39,2.69-4.61,4.04-6.91c0.58-0.66,1.16-1.33,1.74-1.99c1.81-2.28,3.63-4.46,5.69-6.56c2.28-2.32,4.34-4.35,6.87-6.63
				c1.25-1.12,1.65-0.28,2.77-0.85c1.15-0.59,2.42-2.47,3.48-3.17c0.35-0.1,1.36,0.67,1.7,0.57c0.81-0.64,0.98-1.79,1.49-2.7
				c0.54-0.88,2.92-2.29,4-2.6c0.67,0.1,1.34,0.2,2,0.31c0.64-1.02,0.85-3.85,1.77-4.63c0.68-0.57,1.93-0.59,2.55-1.19
				c0.24-0.03,0.47-0.05,0.71-0.08c-0.14,0.64-0.59,1.34-1.06,1.73c0.08,0.68,0.17,1.84,0.65,2.05c1.2,0.36,6.79-2.9,8.14-3.42
				c1.52-0.29,3.4-1.44,4.92-1.73c4.11-1.49,11.9-3.57,16.7-3.08c0.82-0.1,2.4-0.91,3.23-1.01c1.91,0.21,3.09,0.21,5.12,0.19
				c7.33-0.06,15.35,1.03,19.94,1.96c1.42,0.29,3.08,1.11,4.43,1.48c13.32,3.7,22.77,9.3,31.34,18.96c1.19,1.34,2.29,2.84,3.04,4.66
				c0.75,1.8-0.13,3.8,0.9,5.34c0.26,0.38,0.91,0.75,1.2,1.11c0.79,1,1.29,2.32,1.99,3.35c0.4-0.09,0.49-0.09,0.69-0.26
				c0.58-0.08,0.71,0.28,1.06,0.46c0.04,2.65,1.35,5.65,2.29,8.27c0.81,2.28,2.45,5.71,3.07,9.12c0.59,3.35,1.64,6.92,1.38,9.6
				c-0.07,0.72,0.03,1.43,0.15,2.13c0.08,0.53,0.2,1.04,0.29,1.53c0.05,0.33,0.09,0.65,0.09,0.94c-0.02,1.46-0.16,3.05-0.01,4.65
				c-0.3,0.19-0.97-0.06-0.96-0.91c-0.1,0.01-0.11-1.27-0.21-1.26c-0.12-2.02-0.16-1.2-0.28-3.22c-0.02-0.12-0.04-0.25-0.07-0.38
				c-0.07-0.51-0.67-1.28-0.79-1.87c-0.05-0.39,0.09-0.69,0.24-1c-0.04-0.09-1.63-1.94-2.1-1.82c-0.29,0-0.09,1.28-0.14,1.35
				c1.18,6.7,1.05,12.5,0.3,17.85c-0.37,2.64-1.53,6.47-2.6,8.54c-0.16,0.3,0.42,0.93,0.1,1.33c-0.39,0.49-0.95,0.88-1.12,1.26
				c-0.19,0.41,0.13,1.24,0.07,1.68s-1.22,0.37-1.4,0.77c-1.64,3.57-1.78,6.54-4.57,9.19c-2.75,2.61-3.78,6.27-8.59,7.18
				c-0.02,0.26,0.28,1.98,0.09,2.32c-0.21,0.39-2.63,1.14-3.23,1.44c-3.09,1.53-5.69,4.17-9.25,5.48c-1.6,0.59-8.19,2.25-9.41,3.16
				c-1.97,0.29-2.83,0.24-3.67-0.83c-1.36,0.49-3.6,1.2-4.59,2.13c-1.22,0.13-1.77-0.51-2.12-1.37c-1.05,0.17-0.98,5.38-1.64,5.94
				c-1.45,0.12-10.91-5.28-11.84-5.62c-1.32-0.64-6.77,0.31-8.76,0.11c-5.14-0.53-6.72-5.21-11.49-6.38
				c-0.9-0.22-1.97-0.87-2.81-1.11c-2.17-0.63-4.73-1.05-5.43-3.53c-0.67,0.09-1.51,0.23-1.9,0.57c-0.35,0.04-0.71,0.08-1.06,0.12
				c-1.49-4.33-3.33-5.65-5.8-8.46c-0.53-0.6-0.82-1.76-1.5-2.15c-1.12-0.64-3.34-0.92-4.15-1.85c-0.92-1.06-1.16-2.64-1.88-3.9
				c-2.52-4.4-5.71-9.59-7.62-15.01c-0.29-0.82-0.47-1.64-0.61-2.45c-0.11-0.61-0.2-1.22-0.3-1.82c-0.14-0.83-0.3-1.65-0.55-2.43
				c-0.18-1.54-0.35-3.07-0.53-4.61c-0.01,0-0.02,0-0.02,0c-0.03-0.26-0.06-0.53-0.09-0.8c-0.13-1.15-0.26-2.37-0.35-3.58
				l6.73-15.68l-4.49-6.74l6.38,1.06c1.57-1.61,3.14-3.03,4.68-4.26c0.51-0.4,0.64-1.07,1.62-1.74c0.19-0.13,1.11-0.2,1.31-0.34
				c0.9-0.61,1.88-1.25,2.78-1.83c0.38-0.25,0.75-0.48,1.1-0.7c0.25-0.15,0.48-0.3,0.7-0.44c0.51-0.32,0.95-0.58,1.25-0.75
				c1.78-1,2.43-0.65,2.65-1.08c0.12-0.24-0.67-0.72-0.63-0.72c1.78,0,1.95,0.7,3.6,0.67c0.96-0.02,2.7-0.03,4.49,0.01
				c2.08,0.04,4.22,0.14,5.25,0.35c1.8,0.37,3.52,0.92,5.14,1.57c0.49,0.2,1.11,1.02,1.46,0.63c0.31-0.36,0.56-0.44,0.75-0.5
				c0.07-0.02,0.74,1.21,1.22,1.47c0.29,0.16,0.58,0.31,0.86,0.47c1.42,0.8,2.74,1.66,3.93,2.53c0.55,0.4,1.08,0.8,1.58,1.2
				c0.33,0.26,0.65,0.52,0.95,0.78c0.14,0.12,0.27,0.23,0.41,0.34c0.32,0.27,0.62,0.54,0.91,0.8c0.14,0.13,0.28,0.26,0.41,0.38
				c0.69,0.63,0.97,1.6,1.46,1.11c0,0,0.99,0.6,1.01,0.67c0,0,0.61-1.09,0.59-1.25c-0.05-0.42-0.11-0.83-0.17-1.23
				c-0.27-1.73-0.64-3.34-1.1-4.85c-0.07-0.23-0.14-0.46-0.22-0.69c-0.16-0.48-0.32-0.95-0.5-1.4c-0.03-0.08-0.06-0.15-0.09-0.23
				c-0.13-0.34-0.29-1.26-0.43-1.58c-0.33-0.75-0.86-0.43-1.24-1.12c-0.15-0.27-0.08-0.99-0.23-1.25c-0.19-0.33-0.39-0.66-0.6-0.98
				c-0.07-0.11-0.15-0.23-0.22-0.34c-0.47-0.7-0.96-1.37-1.48-2c-0.34-0.41-0.51-1.21-1.04-1.19c-0.93,0.03-0.96-0.99-1.46-1.45
				c-0.26-0.24-0.52-0.47-0.78-0.69c-0.45-0.38-0.9-0.74-1.37-1.08c-0.93-0.69-1.9-1.32-2.9-1.88c-0.77-0.44-1.56-0.84-2.35-1.2
				c-1.81-0.83-3.68-1.49-5.56-2c-1.78-0.49-3.6,1.4-5.34,1.15c-1.29-0.19,0-2.99-3.74-2.66c-0.51,0.05-1.01-0.07-1.51-0.09
				c-0.77-0.04-1.52-0.06-2.24-0.06c-1.34-0.01-2.6,0.02-3.73,0.08c-0.8,0.04-1.55,0.1-2.22,0.15c-1.42,0.12-1.82,1.22-1.92,2.12
				c-0.04-0.48-2.28-1.18-2.02-1.62c-1.62,0.47-3.2,1.02-4.75,1.61c-0.41,0.16-0.83,0.32-1.24,0.49c-2.24,0.91-3.91,1.05-5.92,2.1
				c-0.68,0.35-1.81,1.58-2.46,1.94c-2.93,1.63-5.52,3.28-7.65,4.75c-0.27-0.48-0.55-0.97-0.81-1.45l-2.57,1.34l-0.35,1.19
				c-1.1,0.87-1.88,1.82-2.46,3.59c-0.37-0.03-0.35,0-0.55-0.11c-1.62,0.31-1.85,1.61-2.76,2.46c-1.02,0.97-2.22,1.92-3.05,3.03
				c-0.8,1.08-1.27,2.42-2.31,3.31c0.19,1.09,0.6,1.89,1.03,2.74c-0.76,0.46-2.56,1.03-3.02,1.78c-0.91,1.49-1.66,3.46-2.28,5.09
				c-0.38,1-0.41,2.08-1.11,2.81c0.23,1.14,0.75,1.16,1.11,1.84c0.5,0.94,0.05,3.41-0.26,3.97c-0.28,0.85-1.62,0.57-2.19,1.15
				c-0.38,0.66-0.24,1.56-0.44,2.38c-0.68,2.77-1.05,6.05-1.48,8.94c-0.16,1.04,0.16,1.91-0.23,2.71c0.02,0.12,0.05,0.21,0.08,0.3
				c-0.01,0.01-0.01,0.02-0.02,0.04c0.25,1.41,0.95,1.29,1.5,2.15c0.27,0.33,0.29,1.31,0.53,1.69c0.26,1.99-0.06,2.65-1.4,3.43
				c0.48,2.6,0.79,5.54,1.2,8.49c0.16,1.13,0.33,2.26,0.53,3.37c0.43,2.48,1.01,4.89,1.89,7.04c1.24,3.01,2.28,5.87,3.7,8.88
				c0.54,1.15,1.3,2.46,1.74,3.94c0.76,1.03,0.75,1.02,1.62,2.77c0.24,0.48,0.99,1.39,1.22,1.88c1.84,3.9,5.32,8.77,8.45,12.15
				c3,3.24,6.97,2.25,10.33,5.04c0.11,0.01,0.73,2.35,0.19,3.17l5.77,6.83c0.11,0.23,0.26,0.41,0.45,0.53
				c3.23,1.96,5.35,4.59,8.96,5.99c0.48-0.01,0.97,2.01,1.43,2.08c0.28,0.04,1.06,0.38,1.3,0.39c0.47,0.02,1.19-0.48,1.92-0.4
				l8.67,1.41c0.22,0.43,0.63,0.74,1.15,0.96c1.79,1.31,5.55,5.51,9.56,3.79c2.8,0.3,7.09,3.08,9.89,3.42
				c2.17,0.26,4.75,0.77,6.52,1.6c0.55-0.05,7.06-0.1,7.34-0.34c0.19-0.32,0.22-0.79,0.21-1.28c0.98-0.14,3.42-0.14,4.04-0.64
				c1.74-0.24,2.14,0.5,2.85,1.46c6.78-0.78,17.23-3.18,24.03-3.96c3.76-0.43,8.61-3.02,11.68-4.09c0.71-0.08,1.41-0.16,2.12-0.24
				c2.03-0.75,5.7-4.1,7.53-5.02c2.25-1.13,3.97-2.17,5.91-3.45C516.99,395.72,516.96,394.93,514.72,394.5z"/>
			<polygon class="st0" points="529.33,387.59 526.78,388.94 525.15,389.55 522.5,390.77 519.24,392.61 517.82,394.84 
				521.89,393.83 523.92,392.4 526.98,391.59 528.2,390.37 530.55,388.61 533.53,385.9 535.44,382.29 532.05,385.48 			"/>
			<polygon class="st0" points="515.9,303.45 514.51,300.46 514.47,301.73 514.28,303 513.93,303.8 514.22,304.96 514.47,306.33 
				514.18,306.7 515.15,307.84 515.42,308.19 516.15,307.54 516.35,305.92 515.98,305.04 516.06,303.92 			"/>
			<path class="st0" d="M1019.72,224.87c-0.47-0.67-1.58-0.28-1.73-0.58c-3.8,0.05-8.2,0.75-11.05,0.24
				c-1.24,0.1-7.28,0.26-8.51,0.36c-0.9-0.19-7.6-0.58-8.3-0.36c-0.34,0.11-6.15,0.89-6.5,1c-1.31-0.14-2.63-0.29-3.94-0.43
				c-3.83-0.09-10.17-0.65-13.93-0.61c-3.07,0.03-6.56,0.2-9.4-0.34l-1.53,0.08l1.88,1.81c1.81,2.07,2.04,2.28,3.62,3.55
				c0.24,0.19,0.28,0.77,0.8,1.42c0.31,0.39,1.2,0.36,1.5,0.8c0.43,0.63,0.59,1.67,1.02,2.28c0.2,0.29,0.05,0.21,0.23,0.48
				c0.81,1.12,0.6,1.07,0.75,1.46c1.54,4.04,2.95,10.53,3.02,15.24c-0.05,1.63-0.09,3.27-0.14,4.9c0.41,1.35,1.63,2.51,2.03,4.13
				c-2.67,3.11-0.08,9.05-2.19,12.7c0.19,2.79,2.62,3.32,3.36,5.58c0.69,1.18,0.29,4.66,0.32,6.37c0.11,6.8,0.58,13-3.03,15.73
				c0.29,2.76,1.87,5.04,2.52,7.55c0,0.04,0,0.08,0,0.12c-1.9,1.75-3.57,3.51-3.73,5.33c-1.98-1.4-3.3-3.73-5.15-5.23
				c-4.82-3.9-9.11-8.39-13.88-12.29c-1.09-0.9-1.86-2.43-2.93-3.37c-1.19-1.06-6.23-5.87-6.37-7.48c-0.61,0.16-1.71-0.29-2.34-0.52
				c-1.24-0.17-1.84-0.37-3.08-0.54c-1.07-0.63-1.94-2.19-2.92-2.99c-3.6-2.93-6.37-6.77-9.95-9.7c-1.1-0.9-1.98-2.27-3.26-2.98
				c0.02-1.04,0.2-2.51,0.63-3.23c-0.31-1.51-1.94-2.01-2.92-2.8c-0.63-0.69-1.26-1.37-1.89-2.06c-2.64-2.09-5.06-4.2-7.7-6.32
				c-7.27-5.85-14.01-12.54-21.24-18.43c-1.47-1.2-2.97-2.86-4.29-4.29c-0.46-0.56-0.92-1.12-1.38-1.68
				c-0.67-0.45-5.14,0.15-6.01-0.15c-1.32-0.44-5.85-3.79-7.29-4.88c-0.14,0-0.31-0.2-0.47-0.35c-0.14-0.41-0.3-0.83-0.43-1.24
				c0.04,2.06,0.28,4.87-0.1,6.79c-0.06,0.32-0.07,0.68-0.04,1.05l-0.49,11.66l2.63,4.5l-0.56,2.81l-0.28,1.87l-0.83,2.44
				c-0.19,0.44-0.36,0.88-0.46,1.37c0,0.28,0.01,0.56,0.01,0.84c-0.11,0.26-0.21,0.54-0.28,0.82c0.05,2.58,0.09,5.17,0.14,7.75
				c-0.23,1.1-0.58,7.99-0.27,9.01c0.28,0.9-0.53,2.19-0.25,3.12c0.06,0.19,0.1,0.39,0.12,0.59c-0.01,0.07-0.03,0.15-0.04,0.21
				c-0.16,0.89-0.17,1.81-0.15,2.71c-0.1,0.5-0.2,0.95-0.28,1.31c-0.51,2.42,0.13,5.02-0.31,7.13c0.02,1.33,0.05,2.66,0.07,3.98
				c-0.19,0.95-0.26,2.24-0.31,3.6c-0.07,0.23-0.15,0.45-0.24,0.62c0.05,0.06,0.12,0.16,0.21,0.28c-0.09,2.29-0.24,4.63-0.99,5.78
				c0.44,0.47,2.46,3.11,3.49,5.41c-0.21,2.44,0.03,5.11-0.22,7.42c0.07,0.03,0.14,0.06,0.21,0.09c-0.27,3.03,0.15,6.36-0.45,9.05
				c-0.05,1.47-0.09,2.93-0.14,4.4c-0.36,1.03-2.01,1.57-2.35,2.55c0.02,1.33,0.05,2.66,0.07,3.98c-0.01,1.5-0.28,3.66-0.57,4.83
				c0.01,0.63,0.02,1.26,0.03,1.89c0.34,0.79,3.32,1.58,3.53,2.52c-0.09,1.89,1.4,4.12,1.25,6c0.13,0.93-0.3,2.99-0.62,4.18
				c-0.27,2.72-0.53,5.43-0.8,8.15c-0.32,1.17-0.96,3.44-1.08,4.58c-0.13,1.28,1.51,2.35,1.82,3.42c-0.17,2.3-0.35,4.6-0.52,6.9
				c0.29,1.64-0.24,3.62-0.66,5.02c-0.04,0.91-0.42,7.31-0.46,8.22c-0.53,1.95-0.68,3.88-1.56,5.61c-0.71,1.4-1.19,3.97-2.21,5.07
				c-0.59,0.64-0.84,2.01-1.4,2.67c-1.28,1-2.56,2.15-3.85,3.16c-0.6,0.6-1.58,1.78-2.34,2.23c0.15,0.07,0.71,0.23,0.71,0.23
				c2.98,0.64,7.16,0.48,10.92,0.56c0.66-0.05,1.32-0.72,1.97-0.77c1.59-0.01,2.44-0.56,3.74-0.04c0.58,0.24,1.24,1,1.8,1.24
				c1.6,0.09,7.84-0.94,9.44-0.85c3.97,0.41,7.95,0.1,11.92,0.51c3.27,0.31,13.47,0.5,16.83,1.49c-0.51-1.8-2.41-4.04-2.41-4.04
				c-0.72-1.01-1.57-2.05-2.41-3.11c-0.58-0.74-1.16-1.49-1.69-2.25c-1.08-1.55-1.94-3.15-2.18-4.77
				c-0.76-5.25,1.59-21.76-1.31-25.31c0.29-1.14,1.35-1.52,1.64-2.46c0.15-0.49-0.15-7.14-0.3-7.98c0.07-1.47,0.13-2.93,0.19-4.4
				c-0.29-3.09,0.27-6.49,0.43-9.63c1.21-1.08-1.02-4.45,0.13-5.58c-0.15-4.47-0.31-8.94-0.47-13.41c-0.09-4.96,0.09-9.69-0.9-13.4
				c-0.53-1.98,0.18-6.06-0.79-7.53c-0.04-2.29,0.87-4.58,1.04-6.86c0.03,0.04,0.06,0.08,0.1,0.12c1.03,1.12,2.06,2.24,3.09,3.36
				c0.54,0.81,0.85,1.65,1.39,2.44c0.4,0.37,0.8,0.75,1.2,1.12c0.35,0.51,0.61,1.29,1.04,1.69c0.64,0.58,3.26,0.68,4.25,1.45
				c1.34,1.05,2.28,2.84,3.44,4.12c2.58,2.83,6.26,6.4,8.26,9.73c1.97-0.17,2.64-1.21,4.88-1.21c2.03,2.3,4.18,4.61,6.52,6.53
				c1.2,0.98,1.92,2.77,3.1,3.74c1.16,0.97,3.96,3.37,4.47,4.86c0.69,1.2-0.26,4.09,0.42,5.3c0.47,1.37,4.43,2.92,5.64,3.89
				c1.71,1.37,3.35,3.37,4.64,5.23c0.69,0.62,1.37,1.24,2.06,1.86c0.58,0.9,1.21,3.41,1.92,3.95c0.93,0.71,2.5,0.54,3.4,1.27
				c0.96,0.54,0.64,2.12,1.4,2.82c1.2,1.1,2.5,1.95,3.76,2.98c1.28,1.04,2.3,2.9,3.28,4.31c0.92,1.33,4.58,3.05,5.8,4.05
				c0.98,0.81,5.07,8.09,6.05,8.99c0.76,0.7,4.86,7.07,5.3,8.84c0.53,2.13,0.36,1.39,1.85,3c0.7,0.57,1.16,2.88,1.69,3.62
				c1.95,2.73,3.6,4.11,4.57,4.44c2.99,5.46,6.05,10.9,9.13,16.33c-0.03-2.6-0.07-4.49-0.12-4.68c-0.37-1.5,0.38-3.3,0.58-4.42
				c0.42-2.27-0.27-8.85,0.49-10.3c-0.09-3.13-1.82-3.5-2.49-5.6c-0.26-0.81,0.1-2.25,0.18-2.7c0.05-1.63,0.09-3.27,0.14-4.9
				c0.43-1.42,1.94-2.57,2.34-3.96c-0.11-2.45-0.22-4.9-0.33-7.35c0.32-1.84-0.27-4.71,0.11-6.86c0.33-1.91,0.14-4.81,0.11-7.11
				c-0.09-5.72,0.69-45.24,1.6-50.46c0.01-4.25,0.01-8.5,0.02-12.74c-0.02-1.46-0.39-4.14,0.14-5.15c-0.11-1.64-1.28-2.08-2.22-2.66
				c0.28-1.64,1.47-1.77,1.91-3.21c0.06-0.12-0.24-9.68-0.6-10.28c-0.05-3.18-0.1-6.37-0.15-9.55c-0.59-0.24-1.17-0.47-1.76-0.71
				c-0.02-1.95-0.34-4.3,0.33-5.81c0.29-0.25,0.58-0.5,0.86-0.75c-0.12-2.77-0.38-5.41-0.01-8.29c0.15-4.66-0.06-7.23,1.31-11.19
				c0.1-0.29-0.32,0.34,0.07-0.29c0.16-0.26,0.36-0.94,0.4-1.58c0.04-0.6,0.58-2.58,0.7-2.83c0.69-1.31,0.84-1.25,1.63-2.42
				c0.29-0.43,0.29-1.04,0.63-1.5c0.24-0.32,0.81-0.48,1.06-0.81c2.38-3.02,5.51-6.19,8.17-7.63
				C1019.7,224.89,1019.75,224.9,1019.72,224.87z"/>
		</g>
	</g>
	<g id="DISNEY_7_">
		<g>
			<path class="st0" d="M612.74,94.71c-0.87-2.89-2.08-5.74-5.27-6.23c-1.85,0.43-2.92,2.33-3.3,3.73
				c-2.28,13.38-2.67,27.39-2.47,41.59c0.24,4.88-0.61,11.96,5.35,13.2c2.89,0.83,5.76,0,8.03-1.86
				c0.79-16.05-0.51-30.79-1.51-46.18C613.35,97.05,612.96,95.49,612.74,94.71z"/>
		</g>
		<g>
			<path class="st0" d="M777.59,101.47c2.83-0.18,10.71,0.19,14.42-2.89c0.41-4.54-3.71-8.65-7.81-10.5
				c-12.59-0.83-24.54,1.85-36.47,3.29c-1.12,0.17-3.3,0.4-3.3,2.06c1.04,5.35,6.38,6.39,10.51,7.41l-0.22,0.62l-3.27,9.99
				l-0.82,0.02l-1.59,0.13c-0.33,0.05-0.71,0.12-1.07,0.23c-1.36,0.43-3.01,1.12-2.51,2.82c3.91,7.83-3.92,13.16-3.08,21.01
				c0.55,5.09,3.22,10.38,7.77,12.97c0.66,0.31,1.64,0.67,2.97,0.82c11.99,1.06,21.8-5.26,30.85-12.35c1.03-2.27-0.6-5.15-2.07-7.01
				c-8.65-1.86-16.88,2.05-25.53,2.68l-0.02-0.02l-0.7,0.08c0.91-2.21,2.53-7,4.34-12.5c1.1-0.15,3.29-0.26,5.06-0.12
				c1.76,0.06,3.64,0.23,4.7,0.22c4.18,0,8.38,0.35,11.43-1.9c0.5-0.41,0.63-0.96,0.65-1.28c0.11-1.45,0.54-4.25-0.55-5.89
				c-5.17-1.85-11.53-1.02-17.11-1.02l-0.8,0.01l2.66-8.46L777.59,101.47z"/>
		</g>
		<g>
			<path class="st0" d="M680.92,92.18c-0.01-0.26-0.12-0.53-0.35-0.79c-0.14-0.13-0.36-0.26-0.56-0.35
				c-15.56-6.42-37.18-4.55-51.69,3.45c-4.41,2.29-6.39,6.55-6.75,11.36c-0.02,0.8,0,2.88,0.9,4.58c0.74,1.24,1.77,2.37,2.95,3
				c0.18,0.08,0.5,0.2,0.87,0.3c4.78,1.01,9.86,1.37,14.94,1.69c2.56,0.19,4.42,0.31,4.42,0.31c9.61,0.81,14.11,2.05,14.11,2.05
				h0.06c3.84,1.07,9.14,1.94,10.2,6.67c0.03,0.21,0,0.34-0.06,0.53c-3.22,5.19-12.88,6.97-19.39,8.03
				c-4.26,0.5-15.05,2.28-20.31-2.04c-0.72-0.62-0.88-1.34-0.9-1.74c0-0.1,0-0.21,0.01-0.32c0-0.01,0-0.01,0-0.01l0,0
				c0.04-0.73,0.28-1.49,0.77-2.18c0.08-0.1,0.32-0.39,0.7-0.65c6.81-3.95,15.47,4.5,22.41,3.65c6.99-0.7,9.24-2.36,9.95-3.87
				c0.58-1.13,0.32-1.9,0.32-1.9c-2.46-2.06-8-3.7-12.53-4.52c-6.42-0.93-15.56-2.28-21.99,1.58c-0.11,0.07-1.32,0.84-2.15,2.04
				c-1.24,1.84-2.14,4.05-2.24,6.41c0.01,0.41,0.06,1.03,0.29,1.74c3.29,8.22,11.88,12.58,19.7,14.37
				c10.62,1.71,22.11,0.26,29.92-6.73h-0.01c1.5-1.34,2.31-2.55,2.69-3.2c1.98-3.92,2.58-10.21,1.31-15.08
				c-0.37-1.37-0.96-2.43-1.45-3.12c-8.12-10.78-23.14-7.73-35.88-9.78c-1.58-0.22-3.81-0.6-5.79-1.23
				c-1.23-0.35-1.95-0.67-2.34-0.87c-0.11-0.05-0.22-0.12-0.32-0.18c-0.03-0.02-0.03-0.03-0.03-0.03l0,0
				c-0.29-0.21-0.51-0.49-0.62-0.86c-0.03-0.21,0.09-0.33,0.17-0.4c11.06-4.43,24.36-3.83,36.61-5.27
				c3.88-0.59,7.96-0.44,10.66-3.43c0.09-0.09,0.22-0.23,0.38-0.45c0.01-0.01,0.02-0.02,0.02-0.04c0.02,0,0.02-0.01,0.02-0.01
				c0.26-0.36,0.56-0.87,0.76-1.49c0.12-0.32,0.17-0.64,0.19-0.87c0-0.05,0-0.09,0-0.13c0.01-0.08,0.01-0.13,0.01-0.16
				c0-0.01,0-0.01,0-0.01C680.92,92.19,680.92,92.18,680.92,92.18L680.92,92.18z"/>
		</g>
		<g>
			<path class="st0" d="M843.9,94.41c-0.41-0.46-0.84-0.85-1.13-1.11c-1.41-1.09-3.05-1.77-4.83-1.8c-1.36,0.01-3.19,0.89-4.14,1.4
				c-6.79,3.89-12.72,9.4-18.15,15.78c-0.1,0.11-0.2,0.22-0.29,0.34c-3.22,3.88-7.7,9.76-12.17,17.06c-1.24-1.43-1.24-4.4-1.09-6.22
				c1.43-12.57,14.13-20.99,12.71-34.06c-2.36-0.17-3.91,2.02-5.51,3.54c-0.56,0.59-1.19,1.26-1.81,1.98
				c-8.95,11.19-16.08,23.76-14.1,38.98c0.34,2.02,1.12,4.25,2.05,6.07c0.36,0.78,0.76,1.4,1.08,1.83
				c-2.13,4.42-4.1,9.14-5.73,14.08c-2.4,8.05-4.62,16.16-5.93,24.71c-0.39,1.94-0.99,5.67-0.57,8.95l0,0
				c0.09,1,0.28,1.96,0.68,2.86c2.05,4.34,6.81,9.08,11.53,8.45c1.44-10.91,3.99-21.38,6.97-31.66c1.6-5.19,3.72-11.33,6.43-17.87
				c6.2,1.08,11.23-0.75,11.23-0.75c12.96-4.53,25.28-16.87,28.11-30.27C851.23,108.51,848.93,100.7,843.9,94.41z M841.54,109.25
				l-0.01-0.01c-0.08,6.55-2.75,12.27-7.78,16.74c-4.91,3.92-10.67,6.99-17.01,7.01c0.3-0.57,0.6-1.15,0.91-1.73
				c1.45-2.51,2.91-5.05,4.39-7.59c3.62-5.85,7.77-11.56,12.44-16.83c0.13-0.13,0.24-0.26,0.37-0.41c0.1-0.11,0.21-0.22,0.31-0.33
				c0.96-1.04,1.98-2.07,3.02-3.08c0.27-0.2,0.66-0.42,1.04-0.32l-0.01-0.01c1.07,0.19,1.46,1.48,1.82,2.56
				c0.22,0.81,0.51,2.28,0.51,3.98V109.25z"/>
			<path class="st0" d="M643.25,44.87L643.25,44.87c-0.24-0.31-0.53-0.6-0.82-0.87h0.03c0,0-1.69-1.71-3.99-2.42l0,0
				c-0.24-0.07-0.49-0.14-0.7-0.19c-1.08-0.25-2.02-0.31-2.61-0.31c-0.22,0-0.44,0.01-0.68,0.03c-0.73-2.44-3.67-4.01-3.67-4.01
				c-2.03-1.11-4.29-1.65-6.32-1.89l-0.26-0.04c-4.93-0.52-8.78,0.12-11.78,0.88c-2.4,0.64-4.49,1.55-5.72,2.13
				C595.09,44,590.61,50.7,588.9,54.64c-0.05,0.1-0.11,0.19-0.16,0.28c-0.17,0.45-0.34,0.92-0.47,1.39
				c-0.21,0.69-0.33,1.19-0.37,1.46c-1.04,5.03,0.15,10.45,3.94,14.24c0,0.47-0.07,1.89-0.05,3.27c0.04,0.75,0.13,1.72,0.36,2.66
				c0.14,0.54,0.36,1.14,0.63,1.82c0.9,1.9,1.72,2.54,3.18,2.54c2.66,0.22,3.91-4.12,4.73-5.14c5.15,1.64,11.33,2.69,16.9,1.02
				c3.9-1.23,7.21-2.88,10.7-5.15c5.74-3.79,10.96-8.49,14.62-14.67c1.15-2.05,1.71-4.01,1.96-5.31
				C645.45,49.93,645.15,47.14,643.25,44.87z M596.79,62.15c-0.22,0.26-0.44,0.53-0.66,0.8c-1.1-0.96-0.91-2.5-0.5-3.98
				c0.32-1.11,0.79-1.9,0.92-2.14c0.85-1.44,2.07-2.96,3.3-4.19c1.87-1.86,4.09-3.4,6.45-4.73c0.43-0.24,1.08-0.53,1.67-0.76
				c0.06-0.03,0.14-0.06,0.24-0.09l0,0l0,0c0.65-0.23,2.04-0.61,4.02-0.41h0.02c0.39,0.04,0.82,0.11,1.23,0.22
				C605.28,52.3,598.8,59.71,596.79,62.15z M629.7,63.16c-1.84,1.23-3.71,2.05-5.55,2.86c-5.76,2.08-11.75,3.1-17.7,2.08
				c5.1-8.06,13.19-15.89,21.95-19.29c0.48-0.15,1.41-0.45,2.42-0.6c2.53-0.23,5.42-0.44,6.32,2.58
				C638.16,56.15,633.63,60.27,629.7,63.16z"/>
			<path class="st0" d="M725.43,85.41c-1.65-2.37-4.54-6.8-8.24-7.01c-1.44,0.63-1.5,2.67-1.24,3.9
				c2.68,13.55,7.99,25.86,8.03,40.41c0,0.57-0.02,1.55-0.16,2.12c-0.19,0.59-0.51,1.09-1.07,1.15
				c-8.13-10.98-13.64-23.33-23.67-33.35c-0.44-0.39-0.74-0.6-0.91-0.69c-1.61-0.73-3.1,0.16-4.23,1.42
				c-0.29,0.41-0.93,1.29-1.62,2.82c-3.17,7.39-4.66,15.61-5.8,23.83c-0.63,4.17-2.47,15.65,0.4,22.03c1.24,2.29,3.5,4.55,6.17,4.34
				c1.85-0.21,3.29-2.47,3.92-4.34l2.01-33.35l0.87,1.43c6.8,10.92,10.29,23.27,21,31.91c1.52,1,3.48,0.78,5.15,0.1
				c1.06-0.38,2.53-1.03,3.75-2.12c3.68-2.96,5.62-8.11,6.16-12.21C737.78,112.18,733.88,97.55,725.43,85.41z"/>
			<g>
				<path class="st0" d="M593.47,105.43L593.47,105.43c0,0-2.05-22.24-33.37-45.92c-0.2-0.15-0.41-0.32-0.6-0.48
					c-0.12-0.08-0.23-0.15-0.35-0.23c-2.19-1.64-4.53-3.26-7.01-4.9c-9.94-6.58-20.18-11.49-28.37-15.07
					c-24.16-10.6-59.54-18.1-91.15-8.43c-4.56,1.64-6.21,6.02-7.68,10.14c-0.15,0.6-0.37,1.73,0.05,2.43c1.67,1.82,4.41,2,7.08,2.11
					c1.11,0.01,3.49,0,5.08-0.24c1-0.23,1.89-0.64,1.87-1.71c-0.03-0.25-0.09-0.4-0.2-0.55c-2.02-2.56-5.29-1.55-7.49-2.81
					c-0.07-0.07-0.08-0.16-0.06-0.24c0.1-0.17,0.21-0.32,0.35-0.45h-0.02c0.77-0.72,2.09-1.11,3.25-1.35
					c0.03-0.01,0.42-0.09,0.45-0.11c0.22-0.03,0.44-0.07,0.67-0.1c0.25-0.04,0.42-0.06,0.42-0.06c25.56-4.02,50.3,0.69,72.43,8.81
					c25.41,10.36,54.97,25.95,66.86,53.67c0.3,0.73,0.62,1.6,0.91,2.57c0.02,0.09,0.05,0.17,0.07,0.26
					c0.05,0.18,0.09,0.36,0.14,0.54c0.14,0.55,0.27,1.11,0.38,1.66c0.02,0.13,0.06,0.25,0.08,0.38c1.84,9.71-0.45,20.4-8.52,27.04
					c-17.5,14.01-42.41,15.23-64.44,11.12l-0.58-31.24c0.01-1.58,0.02-5.2-0.03-6.87c-0.03-0.59-0.02-0.31,0-0.89
					c2.9-0.07,3.74,0,4.71,0.04c9.92,0.45,23.95,2.27,34.35,7.43c0.16,0.11,0.42,0.33,0.43,0.69c0,0.01,0,0.02,0,0.02
					c0,0.06-0.01,0.13-0.03,0.2c-0.11,0.63-0.39,1.22-0.67,1.72l0,0c0,0.02-0.02,0.04-0.03,0.06c-0.13,0.21-0.26,0.41-0.39,0.6
					c-0.81,1.21-1.33,1.63-1.49,1.74c-1.84,1.54-4.55,2.29-4.55,4.65c0.03,0.18,0.07,0.23,0.26,0.35c2.12,0.92,4.6,1.34,6.94,1.37
					c0.33,0,1.57-0.04,2.86-0.68c3.5-1.91,7.56-4.98,8.47-8.85c0.99-3.5-0.17-6.47-1.74-9.21c-0.98-1.63-2.47-2.96-3.24-3.57
					c-8.59-6.53-19.03-9.04-29.84-9.9c-6.46-0.57-11.37-0.52-14.18-0.39c-0.28,0-0.56,0-0.85,0l-0.71,0.04
					c-0.04,0-0.65,0.06-0.69,0.06l-0.44-17.82c-0.63-4.53-3.09-9.87-7.83-11.53c-4.95,9.06-5.06,29.13-5.53,30.7
					c-0.59,0.12-1.2,0.25-1.77,0.39c-3.25,0.58-6.79,1.35-10.5,2.36c-3.08,0.77-6.15,1.64-9.18,2.8c-5.61,2.22-11.2,4.99-16.03,9.66
					c-0.33,0.35-0.75,0.82-1.09,1.34c-1.13,1.79-1.89,4.14-1.48,6.37c0.05,0.21,0.22,0.82,0.57,1.5
					c8.52,14.56,23.97,25.52,38.42,32.23c1.04,5.16,1.04,10.71,4.33,14.43c2.89,0.8,6.09,0.35,8.24-0.21
					c2.87-1.16,2.7-5.16,2.94-7.9c0.23,0.03,0.21,0.03,0.35,0.07c25.1,5.97,52.71,3.69,72.9-11.13
					C589.82,134.65,596.01,120.69,593.47,105.43z M487.83,138.53c-12.29-4.49-25.17-11.03-33.61-22.83
					c-0.14-0.23-0.21-0.45-0.26-0.58c0-0.01-0.01-0.03-0.01-0.05c0-0.01-0.01-0.03-0.01-0.06c-0.36-2.22,2.28-3.89,4.02-4.47
					c4.74-1.64,9.89-2.69,15.04-3.51c9-1.37,13.99-1.63,16.06-1.79C489.06,116.36,488.24,127.22,487.83,138.53z"/>
			</g>
		</g>
	</g>
</g>
</svg>
