<?xml version="1.0" encoding="utf-8"?>
<!-- Generator: Adobe Illustrator 23.1.0, SVG Export Plug-In . SVG Version: 6.00 Build 0)  -->
<svg version="1.1" id="INFO" xmlns="http://www.w3.org/2000/svg" xmlns:xlink="http://www.w3.org/1999/xlink" x="0px" y="0px"
	 viewBox="0 0 130.33 61.11" style="enable-background:new 0 0 130.33 61.11;" xml:space="preserve">
<g>
	<g>
		<g>
			<polygon points="124.15,55.44 124.15,55.8 123.22,55.8 123.22,58.2 122.85,58.2 122.85,55.81 121.93,55.81 121.93,55.44 			"/>
			<polygon points="124.92,55.44 125.73,57.7 126.52,55.44 127.02,55.44 127.02,58.2 126.66,58.2 126.66,56.01 125.93,58.2 
				125.52,58.2 124.79,56.01 124.79,58.2 124.44,58.2 124.44,55.44 			"/>
		</g>
		<path d="M61.08,31.81c-0.04-0.13-0.16-0.23-0.3-0.24l-14.31,0c-0.14,0.01-0.26,0.11-0.3,0.24c0,0-7.91,26.11-7.91,26.16
			c0,0.13,0.11,0.24,0.24,0.24l9.46,0c0.08-0.03,0.13-0.1,0.15-0.18l1.1-3.52c0.04-0.09,0.12-0.15,0.22-0.15l8.72-0.01
			c0.1,0.01,0.18,0.07,0.22,0.16l1.13,3.52c0.02,0.08,0.07,0.15,0.15,0.18c0,0,9.3,0,9.31,0c0.13,0,0.24-0.1,0.24-0.23
			C69.19,57.93,61.08,31.81,61.08,31.81z M55.83,47.1h-3.9c-0.14,0-0.24-0.16-0.24-0.3c0-0.06,2.07-6.74,2.07-6.74
			c0.07-0.25,0.08-0.26,0.11-0.26l0,0c0.03,0,0.04,0.01,0.11,0.26c0,0,2.07,6.68,2.07,6.74C56.06,46.95,55.96,47.1,55.83,47.1z"/>
		<path d="M115.92,40.2h13.17v-8.64h-16.93c-1.59,0-3.81,0.82-5.09,1.76c-1.28,0.95-3.13,3.11-3.13,6.08c0,2.97,1.81,5.29,1.81,5.29
			c0.92,1.15,3.26,3.54,3.26,3.54c0.05,0.06,0.08,0.13,0.08,0.21c0,0.18-0.15,0.32-0.32,0.32l-13.04,0c-1.59-0.01-1.7-0.64-1.7-0.73
			c0-0.16,0.2-0.26,0.2-0.26c0.59-0.29,1.81-1.23,1.81-1.23c2.58-2.01,2.89-4.76,2.89-6.24c0-1.48-0.22-4.09-2.86-6.38
			c-2.64-2.29-5.99-2.36-5.99-2.36H71.44c0,0,0,26.47,0,26.48c0,0.08,0.08,0.15,0.16,0.15c0.02,0,10.36,0,10.36,0v-7.43
			c0-0.13,0.2,0,0.2,0l5.4,5.42c1.92,1.94,5.09,2,5.09,2l20.4,0c3.48,0,5.42-1.89,5.95-2.42c0.53-0.53,2.29-2.51,2.29-5.8
			c0-3.28-1.5-4.96-2.14-5.73c-0.57-0.69-2.85-3.1-3.32-3.6c-0.06-0.05-0.09-0.12-0.09-0.2C115.74,40.34,115.81,40.23,115.92,40.2z
			 M88.05,42.47l-5.81,0c0,0-0.15-0.04-0.15-0.22l-0.01-2.93c0-0.18,0.15-0.22,0.15-0.22h5.33c0.62,0,1.87,0.31,1.87,1.74
			C89.44,42.27,88.05,42.47,88.05,42.47z"/>
		<path d="M24.72,58.2c-0.06,0-0.1-0.04-0.12-0.09l-2.97-9.83c-0.01-0.05-0.04-0.09-0.09-0.09c-0.05,0-0.07,0.03-0.09,0.09l0,0
			c0,0-3.04,9.79-3.04,9.79c-0.02,0.06-0.07,0.12-0.12,0.13c0,0-8.74,0-8.75,0c-0.07,0-0.12-0.05-0.14-0.13
			c0-0.01-8.13-26.31-8.13-26.31s0-0.03,0-0.04c0-0.09,0.07-0.16,0.16-0.16c0,0,10.53,0,10.53,0c0.04,0.01,0.08,0.04,0.08,0.08
			l2.03,6.87c0.01,0.05,0.04,0.08,0.09,0.08c0.05,0,0.08-0.04,0.09-0.09c0,0,1.92-6.88,1.92-6.88c0.01-0.03,0.04-0.06,0.07-0.06
			c0,0,10.91,0,10.91,0c0.05,0,0.08,0.04,0.09,0.09l2.14,6.85c0.01,0.05,0.05,0.09,0.1,0.09c0.05,0,0.08-0.04,0.09-0.09
			c0,0,2.04-6.85,2.04-6.85c0.01-0.05,0.04-0.09,0.09-0.09c0,0,9.88,0,9.88,0c0.07,0.01,0.11,0.08,0.11,0.16
			c0,0.03-8.02,26.35-8.02,26.35c-0.02,0.08-0.07,0.13-0.14,0.13C33.54,58.2,24.73,58.2,24.72,58.2z"/>
	</g>
	<g>
		<path d="M62.99,2.96v8.68h-11.5v17.96h-9.47v-18l-12.32,0c-0.11,0.03-0.17,0.14-0.17,0.26c0,0.08,0.04,0.15,0.09,0.2
			c0.47,0.5,2.75,2.89,3.32,3.58c0.64,0.77,2.14,2.47,2.14,5.75c0,3.28-1.76,5.27-2.29,5.79c-0.53,0.53-2.47,2.42-5.95,2.42H1.25
			v-9.41c0,0,21.26,0,21.28,0c0.18,0,0.32-0.15,0.32-0.32c0-0.08-0.03-0.16-0.08-0.21c0,0-2.33-2.41-3.26-3.55
			c0,0-1.81-2.31-1.81-5.29c0-2.97,1.85-5.13,3.13-6.08c1.28-0.95,3.5-1.76,5.09-1.76H62.99z"/>
		<path d="M116.22,20.16c-1.59-0.01-1.7-0.64-1.7-0.73c0-0.16,0.2-0.26,0.2-0.26c0.59-0.29,1.81-1.23,1.81-1.23
			c2.58-2.01,2.89-4.76,2.89-6.23c0-1.48-0.22-4.09-2.86-6.38c-2.64-2.29-5.99-2.36-5.99-2.36H91.94c0,0,0,26.48,0,26.49
			c0,0.09,0.08,0.15,0.16,0.15c0.02,0,10.36,0,10.36,0v-7.42c0-0.13,0.2,0,0.2,0l5.4,5.42c1.92,1.94,5.09,2.01,5.09,2.01h15.93
			v-9.43H116.22z M108.55,13.86l-5.81,0c0,0-0.15-0.04-0.15-0.22l-0.01-2.93c0-0.18,0.15-0.22,0.15-0.22h5.33
			c0.62,0,1.87,0.31,1.87,1.74S108.55,13.86,108.55,13.86z"/>
		<path d="M82.08,3.19c-0.04-0.13-0.16-0.23-0.3-0.23l-14.31,0c-0.14,0.01-0.26,0.1-0.3,0.23c0,0-7.9,26.12-7.9,26.17
			c0,0.13,0.11,0.24,0.24,0.24l9.46,0c0.08-0.03,0.13-0.1,0.15-0.18l1.1-3.52c0.04-0.08,0.12-0.15,0.22-0.15l8.72,0
			c0.1,0.01,0.18,0.07,0.22,0.15l1.13,3.52c0.02,0.08,0.07,0.15,0.15,0.18c0,0,9.3,0,9.31,0c0.13,0,0.24-0.1,0.24-0.23
			C90.19,29.32,82.08,3.19,82.08,3.19z M76.83,18.49l-3.9,0c-0.14,0-0.24-0.16-0.24-0.3c0-0.06,2.07-6.74,2.07-6.74
			c0.07-0.25,0.1-0.26,0.11-0.26h0c0.01,0,0.04,0.01,0.11,0.26c0,0,2.07,6.68,2.07,6.74C77.07,18.34,76.97,18.49,76.83,18.49z"/>
	</g>
</g>
</svg>
