<?xml version="1.0" encoding="utf-8"?>
<!-- Generator: Adobe Illustrator 23.1.0, SVG Export Plug-In . SVG Version: 6.00 Build 0)  -->
<svg version="1.1" id="Layer_1" xmlns="http://www.w3.org/2000/svg" xmlns:xlink="http://www.w3.org/1999/xlink" x="0px" y="0px"
	 viewBox="0 0 141.73 141.73" style="enable-background:new 0 0 141.73 141.73;" xml:space="preserve">
<style type="text/css">
	.st0{fill:none;}
	.st1{fill:#E5E6DF;}
	.st2{fill:#FF7F31;}
	.st3{fill:#0071CE;}
	.st4{fill:#B8BBBD;}
	.st5{fill:#010101;}
	.st6{fill:#67ABE4;}
</style>
<symbol  id="New_Symbol_1" viewBox="-70.87 -70.87 141.73 141.73">
	<rect x="-70.87" y="-70.87" class="st0" width="141.73" height="141.73"/>
	<g>
		<path class="st1" d="M-2.17,47.26h0.24H1.2h0.24c0.08,0,0.15-0.05,0.17-0.12l1.18-2.91L1.92,58.54h-4.53l-0.87-14.2l1.14,2.8
			C-2.32,47.22-2.25,47.26-2.17,47.26z"/>
		<polygon class="st1" points="32.91,-40.17 53.69,-40.05 53.69,-33.28 44.78,-32.03 44.78,-38.71 42.24,-37.86 42.24,-31.67 
			41.08,-31.51 41.08,-37.46 38.53,-36.61 38.53,-31.15 31.48,-30.16 31.48,-36.91 		"/>
		<polygon class="st1" points="-29.35,-30.79 -28.87,-29.69 -31.8,-30.1 -31.8,-31.1 		"/>
		<polygon class="st1" points="-31.8,-31.48 -31.8,-36.35 -29.53,-31.19 		"/>
		<polygon class="st1" points="2.32,22.25 4.64,14.16 2.87,43.06 1.31,46.89 1.2,46.89 -1.94,46.89 -2.05,46.89 -3.56,43.17 
			-5.37,13.59 -2.89,22.25 		"/>
		<polygon class="st1" points="31.1,-31.02 31.1,-30.1 28.31,-29.71 28.74,-30.69 		"/>
		<path class="st1" d="M-54.77-33.25c-0.02,0.01-0.04,0.02-0.06,0.03c-0.08,0.07-0.13,0.18-0.13,0.28v3.68
			c-0.48,0.29-2.76,0.29-3.25,0v-25.02c0.11-0.11,0.67-0.31,1.62-0.31c0.95,0,1.52,0.2,1.62,0.31v2.6c0,0.11,0.05,0.22,0.14,0.29
			c0.01,0.01,0.03,0.01,0.05,0.02v9.72V-33.25z"/>
		<path class="st1" d="M54.07-51.36c0.02-0.01,0.03-0.01,0.05-0.02c0.09-0.07,0.14-0.18,0.14-0.29v-2.6
			c0.11-0.11,0.67-0.31,1.62-0.31c0.95,0,1.52,0.2,1.62,0.31v25.02c-0.48,0.29-2.76,0.29-3.25,0v-3.68c0-0.11-0.05-0.21-0.13-0.28
			c-0.02-0.02-0.04-0.02-0.06-0.03v-8.39V-51.36z"/>
		<polygon class="st1" points="-46.83,-41.58 -54.39,-41.82 -54.39,-49 -46.83,-50.49 		"/>
		<polygon class="st1" points="45.68,-50.56 45.68,-41.56 41.88,-41.44 41.88,-51.31 		"/>
		<polygon class="st1" points="-54.39,-49.38 -54.39,-51.33 -39.79,-54.51 -38.88,-52.44 		"/>
		<polygon class="st1" points="-33.48,-40.17 -32.17,-37.2 -32.17,-30.16 -39.35,-31.17 -39.35,-36.61 -41.89,-37.46 -41.89,-31.53 
			-43.05,-31.69 -43.05,-37.86 -45.6,-38.71 -45.6,-32.05 -54.39,-33.28 -54.39,-40.05 		"/>
		<polygon class="st1" points="38.29,-52.4 39.21,-54.48 53.69,-51.33 53.69,-49.36 		"/>
		<path class="st1" d="M48.68-28.17v-3.64l3.23-0.45v4.1C51.46-27.86,49.13-27.86,48.68-28.17z"/>
		<path class="st1" d="M-52.61-28.17v-4.1l3.23,0.45v3.64C-49.82-27.86-52.16-27.86-52.61-28.17z"/>
		<polygon class="st1" points="-46.45,-41.57 -46.45,-50.56 -42.65,-51.31 -42.65,-41.44 		"/>
		<polygon class="st1" points="41.5,-51.38 41.5,-41.43 33.35,-41.16 38.14,-52.05 		"/>
		<polygon class="st1" points="46.05,-50.49 53.69,-48.98 53.69,-41.82 46.05,-41.58 		"/>
		<polygon class="st1" points="-42.28,-51.38 -38.72,-52.08 -33.92,-41.16 -42.28,-41.43 		"/>
		<polygon class="st1" points="31.1,-36.05 31.1,-31.4 28.92,-31.1 		"/>
		<path class="st2" d="M-19.46-64.65c0-0.35,0.29-0.64,0.64-0.64h3.58c0.35,0,0.64,0.29,0.64,0.64v3.68h-4.85V-64.65z"/>
		<path class="st2" d="M13.89-64.65c0-0.35,0.29-0.64,0.64-0.64h3.58c0.35,0,0.64,0.29,0.64,0.64v3.68h-4.85V-64.65z"/>
		<polygon class="st3" points="44.78,-38.71 44.78,-32.03 42.24,-31.67 42.24,-37.86 		"/>
		<polygon class="st3" points="41.08,-37.46 41.08,-31.51 38.53,-31.15 38.53,-36.61 		"/>
		<polygon class="st3" points="-43.05,-37.86 -43.05,-31.69 -45.6,-32.05 -45.6,-38.71 		"/>
		<polygon class="st3" points="-39.35,-36.61 -39.35,-31.17 -41.89,-31.53 -41.89,-37.46 		"/>
		<path class="st2" d="M-5.98-57.42H5.28L6.7-19.44l-2.06,33.6l-2.32,8.1h-5.2l-2.49-8.67L-7.4-19.44L-5.98-57.42z M2.8-44.08h-6.11
			v14.67l0.95-1.05h4.13l1.03,1.12V-44.08z M2.86-28.48l-1.2-1.2H-2.1l-1.2,1.2v3.76l1.2,1.2h3.76l1.2-1.2V-28.48z M-3.31-23.77
			v2.01H2.8v-1.94l-0.95,1.05h-4.13L-3.31-23.77z M3.26,12.35L5.04-8.82l-0.3-12.29h-10.1l-0.3,12.29l1.78,21.17H3.26z"/>
		<rect x="8.54" y="-31" class="st2" width="15.99" height="1.27"/>
		<path class="st2" d="M25.27-30.59v-0.79c0-0.21-0.17-0.38-0.38-0.38h-0.62c0.02-1.32,0.01-6.78-1.26-8.73l8.08-0.18v4.61
			l-2.18,4.96L25.27-30.59z"/>
		<path class="st2" d="M33.35-41.16l-1.76,0.06c-0.04,0-0.08,0.02-0.11,0.05v-9.45c0-0.1-0.07-0.18-0.17-0.19l-2.92-0.26v-3.01
			l9.75,1.92L33.35-41.16z"/>
		<polygon class="st2" points="28.39,-54.35 28.39,-56.83 39.21,-54.48 38.29,-52.4 		"/>
		<polygon class="st2" points="32.91,-40.17 31.48,-36.91 31.48,-40.18 		"/>
		<path class="st2" d="M11.72-54.97v14.12h-1.53c-0.13,0-0.26,0.07-0.32,0.18c-0.05,0.09-1.29,2.29-1.11,8.91H8.16
			c-0.21,0-0.38,0.17-0.38,0.38v3.54c0,0.01,0,0.01,0,0.02v2.14c0,0.88,0.61,1.61,1.42,1.81l-0.75,4.05H7.44l-1.4-37.42L11.72-54.97
			z"/>
		<path class="st2" d="M8.53-25.67v-1.77h15.99v0.34c0,0.01-0.01,0.02-0.01,0.02l-0.06,1.27c-0.03,0.7-0.6,1.25-1.3,1.25H9.64
			c0,0,0,0,0,0c0,0,0,0,0,0C9.03-24.56,8.53-25.06,8.53-25.67z"/>
		<path class="st2" d="M27.8-29.48l-1.02,2.04h-1.51v-0.38v-2.39l3.47-0.49l-0.43,0.98l-0.22,0.03
			C27.96-29.66,27.86-29.59,27.8-29.48z"/>
		<path class="st2" d="M18.17-52.13c0.21,0,0.4-0.06,0.57-0.16v0.5c0,1.34-1.09,2.43-2.43,2.43s-2.43-1.09-2.43-2.43v-0.58
			c0.19,0.15,0.42,0.24,0.68,0.24H18.17z"/>
		<path class="st2" d="M31.1-41.04l-8.65,0.2h-1.52v-14.08h1.21v4.12c0,0.21,0.17,0.38,0.38,0.38h5.5c0.13,0,0.23-0.07,0.3-0.16
			l2.79,0.25V-41.04z"/>
		<path class="st2" d="M-15.22-53.01c0.24,0,0.45-0.09,0.61-0.24v1.46c0,1.34-1.09,2.43-2.43,2.43s-2.43-1.09-2.43-2.43v-1.43
			c0.16,0.12,0.35,0.21,0.57,0.21H-15.22z"/>
		<path class="st2" d="M12.09-40.84v-14.08h1.05v3.13c0,1.75,1.43,3.18,3.18,3.18c1.75,0,3.18-1.43,3.18-3.18v-3.13h1.06v14.08
			H12.09z"/>
		<path class="st2" d="M10.42-40.09h11.97c1.02,1.52,1.17,6.27,1.13,8.34H9.5C9.35-37.08,10.15-39.45,10.42-40.09z"/>
		<path class="st2" d="M-23.09-40.09h11.97c0.27,0.64,1.07,3.01,0.92,8.34h-13.98C-24.23-33.8-24.11-38.56-23.09-40.09z"/>
		<path class="st2" d="M-23.15-40.84l-8.65-0.2v-9.29l2.79-0.25c0.07,0.09,0.17,0.16,0.3,0.16h5.5c0.21,0,0.38-0.17,0.38-0.38v-4.12
			h1.21v14.08H-23.15z"/>
		<path class="st2" d="M-23.72-40.48c-1.27,1.96-1.24,7.45-1.22,8.73h-0.66c-0.21,0-0.38,0.17-0.38,0.38v0.63l-3.56-0.45l-2.27-5.15
			v-4.32L-23.72-40.48z"/>
		<path class="st2" d="M-17.03-48.61c1.75,0,3.18-1.43,3.18-3.18v-3.13h1.06v14.08h-8.46v-14.08h1.04v3.13
			C-20.21-50.04-18.78-48.61-17.03-48.61z"/>
		<path class="st2" d="M-25.97-30.37v2.55v0.38h-1.51l-1.02-2.04c-0.06-0.11-0.16-0.19-0.28-0.2l-0.09-0.01l-0.48-1.1L-25.97-30.37z
			"/>
		<polygon class="st2" points="-32.17,-37.2 -33.48,-40.17 -32.17,-40.18 		"/>
		<polygon class="st2" points="-29.09,-54.36 -38.88,-52.44 -39.79,-54.51 -29.09,-56.83 		"/>
		<path class="st2" d="M-32.17-50.51v9.45c-0.03-0.03-0.07-0.05-0.11-0.05l-1.63-0.05l-4.81-10.92l9.63-1.9v3.02L-32-50.69
			C-32.1-50.68-32.17-50.6-32.17-50.51z"/>
		<rect x="-25.22" y="-31" class="st2" width="15.99" height="1.27"/>
		<path class="st2" d="M-9.23-27.44v1.77c0,0.61-0.5,1.11-1.11,1.11c0,0,0,0,0,0c0,0,0,0,0,0h-13.51c-0.7,0-1.27-0.55-1.3-1.25
			l-0.06-1.27c0-0.01,0-0.02-0.01-0.02v-0.34H-9.23z"/>
		<path class="st2" d="M-8.48-25.67v-2.14c0-0.01,0-0.01,0-0.02v-3.54c0-0.21-0.17-0.38-0.38-0.38h-0.59
			c0.18-6.62-1.06-8.82-1.11-8.91c-0.07-0.11-0.19-0.18-0.32-0.18h-1.53v-14.12l5.67-2.27l-1.4,37.42h-1.01l-0.75-4.05
			C-9.09-24.06-8.48-24.8-8.48-25.67z"/>
		<path class="st2" d="M-15.22-53.01h-3.67c-0.22,0-0.41-0.09-0.57-0.21v-2.08h4.85v2.05C-14.77-53.11-14.98-53.01-15.22-53.01z"/>
		<path class="st2" d="M18.74-55.3v3c-0.17,0.1-0.36,0.16-0.57,0.16h-3.6c-0.26,0-0.49-0.09-0.68-0.24v-2.93H18.74z"/>
		<polygon class="st4" points="-42.28,-51.38 -42.28,-51.53 -42.65,-51.53 -42.65,-51.31 -46.45,-50.56 -46.45,-50.7 -46.83,-50.7 
			-46.83,-50.49 -54.39,-49 -54.39,-49.38 -38.88,-52.44 -38.72,-52.08 		"/>
		<polygon class="st4" points="-38.88,-52.44 -29.09,-54.36 -29.09,-53.98 -38.72,-52.08 		"/>
		<polygon class="st4" points="-46.83,-41.58 -46.83,-50.49 -46.45,-50.56 -46.45,-41.57 		"/>
		<polygon class="st4" points="-46.83,-50.7 -46.45,-50.7 -46.45,-50.56 -46.83,-50.49 		"/>
		<polygon class="st4" points="-42.65,-41.44 -42.65,-51.31 -42.28,-51.38 -42.28,-41.43 		"/>
		<polygon class="st4" points="-42.65,-51.53 -42.28,-51.53 -42.28,-51.38 -42.65,-51.31 		"/>
		<polygon class="st4" points="46.05,-50.7 45.68,-50.7 45.68,-50.56 41.88,-51.31 41.88,-51.53 41.5,-51.53 41.5,-51.38 
			38.14,-52.05 38.29,-52.4 53.69,-49.36 53.69,-48.98 46.05,-50.49 		"/>
		<polygon class="st4" points="28.39,-53.97 28.39,-54.35 38.29,-52.4 38.14,-52.05 		"/>
		<polygon class="st4" points="46.05,-50.49 46.05,-41.58 45.68,-41.56 45.68,-50.56 		"/>
		<polygon class="st4" points="45.68,-50.7 46.05,-50.7 46.05,-50.49 45.68,-50.56 		"/>
		<polygon class="st4" points="41.88,-51.31 41.88,-41.44 41.5,-41.43 41.5,-51.38 		"/>
		<polygon class="st4" points="41.5,-51.53 41.88,-51.53 41.88,-51.31 41.5,-51.38 		"/>
		<path class="st4" d="M-5.36-21.11h10.1l0.3,12.29L3.26,12.35h-7.13L-5.66-8.82L-5.36-21.11z M-3.03,10.67h5.36L3.6-8.01L2.33-9.55
			h-5.36l-1.18,1.58L-3.03,10.67z M-3.68-16.39h6.74l0.68-3.54h-8.11L-3.68-16.39z"/>
		<rect x="13.89" y="-60.97" class="st3" width="4.85" height="5.67"/>
		<rect x="-19.46" y="-60.97" class="st3" width="4.85" height="5.67"/>
		<rect x="8.54" y="-29.73" class="st3" width="15.99" height="1.54"/>
		<rect x="-25.22" y="-29.73" class="st3" width="15.99" height="1.54"/>
		<polygon class="st5" points="-46.83,-41.38 -46.45,-41.38 -46.45,-41.57 -42.65,-41.44 -42.65,-41.32 -42.28,-41.32 
			-42.28,-41.43 -33.92,-41.16 -33.81,-40.92 -54.39,-41.63 -54.39,-41.64 -54.39,-41.82 -46.83,-41.58 		"/>
		<path class="st5" d="M-54.58-41.45C-54.58-41.45-54.58-41.46-54.58-41.45l0.06,1.4l0.13,0v6.77l-0.14-0.02
			c-0.08-0.01-0.17,0.01-0.24,0.06v-8.39C-54.77-41.54-54.68-41.45-54.58-41.45z"/>
		<path class="st5" d="M-33.81-40.92l-0.11-0.24l1.63,0.05c0.04,0,0.08,0.02,0.11,0.05v0.19L-33.81-40.92z"/>
		<polygon class="st5" points="-46.45,-41.38 -46.83,-41.38 -46.83,-41.58 -46.45,-41.57 		"/>
		<polygon class="st5" points="-42.28,-41.32 -42.65,-41.32 -42.65,-41.44 -42.28,-41.43 		"/>
		<path class="st5" d="M-25.59-27.44c0.21,0,0.38-0.17,0.38-0.38v-0.21h15.99v0.28c0,0.21,0.17,0.38,0.38,0.38
			c0.21,0,0.38-0.17,0.38-0.38v-0.09c0,0.01,0,0.01,0,0.02v2.14c0,0.88-0.61,1.61-1.42,1.81l-0.07-0.39
			c-0.03-0.18-0.19-0.31-0.37-0.31c0,0,0,0,0,0c0.61,0,1.11-0.5,1.11-1.11v-1.77h-15.99v0.34C-25.24-27.29-25.39-27.43-25.59-27.44
			l-0.38,0v-0.38C-25.97-27.61-25.8-27.44-25.59-27.44z"/>
		<rect x="-25.22" y="-28.19" class="st5" width="15.99" height="0.17"/>
		<path class="st5" d="M-25.45-30.49c0.01-0.1-0.06-0.2-0.16-0.21l-0.36-0.05v-0.63c0-0.21,0.17-0.38,0.38-0.38h0.66
			c0,0.14,0.01,0.25,0.01,0.28c0.01,0.2,0.17,0.36,0.38,0.36c0,0,0.01,0,0.01,0c0.21-0.01,0.37-0.18,0.36-0.39
			c0-0.08,0-0.16-0.01-0.25h13.98c0,0.09,0,0.17-0.01,0.26c-0.01,0.21,0.16,0.38,0.36,0.39c0.19,0.01,0.38-0.16,0.39-0.36
			c0-0.1,0-0.19,0.01-0.28h0.59c0.21,0,0.38,0.17,0.38,0.38v3.54c-0.01-0.2-0.17-0.36-0.37-0.36h-0.2v-1.54h-0.18V-31h-15.99v1.27
			h-0.34v1.54h-0.04c-0.21,0-0.38,0.17-0.38,0.38v-2.55l0.31,0.04C-25.55-30.32-25.46-30.39-25.45-30.49z"/>
		<rect x="-25.56" y="-29.73" class="st5" width="0.34" height="1.54"/>
		<rect x="-9.23" y="-29.73" class="st5" width="0.18" height="1.54"/>
		<path class="st5" d="M-25.59-28.19h0.04v0.17h0.34v0.21c0,0.21-0.17,0.38-0.38,0.38c-0.21,0-0.38-0.17-0.38-0.38
			C-25.97-28.02-25.8-28.19-25.59-28.19z"/>
		<path class="st5" d="M-8.86-27.37c-0.21,0-0.38-0.17-0.38-0.38v-0.28h0.18v-0.17h0.2c0.2,0,0.36,0.16,0.37,0.36v0.09
			C-8.48-27.54-8.65-27.37-8.86-27.37z"/>
		<rect x="-25.56" y="-28.19" class="st5" width="0.34" height="0.17"/>
		<rect x="-9.23" y="-28.19" class="st5" width="0.18" height="0.17"/>
		<path class="st5" d="M-12.6-40.43c0.1,0,0.19-0.08,0.19-0.19v-0.23h1.53c0.13,0,0.26,0.07,0.32,0.18
			c0.05,0.09,1.29,2.29,1.11,8.91h-0.75c0.15-5.33-0.65-7.7-0.92-8.34h-11.97c-1.02,1.53-1.14,6.29-1.1,8.34h-0.75
			c-0.03-1.28-0.06-6.77,1.22-8.73l2.28,0.05c0,0,0,0,0,0c0,0,0,0,0,0c0.04,0,0.06-0.02,0.09-0.04c0.01-0.01,0.03-0.01,0.04-0.02
			c0.01-0.01,0.01-0.03,0.02-0.05c0.01-0.03,0.03-0.05,0.04-0.08c0,0,0,0,0,0c0,0,0,0,0,0v-0.23h8.46v0.23
			C-12.79-40.51-12.7-40.43-12.6-40.43z"/>
		<polygon class="st5" points="-23.15,-40.84 -21.63,-40.84 -21.63,-40.81 		"/>
		<path class="st5" d="M-24.18-31.5c0.01,0.21-0.16,0.38-0.36,0.39c0,0-0.01,0-0.01,0c-0.2,0-0.37-0.16-0.38-0.36
			c0-0.03,0-0.13-0.01-0.28h0.75C-24.18-31.67-24.18-31.58-24.18-31.5z"/>
		<path class="st5" d="M-9.45-31.47c-0.01,0.21-0.2,0.38-0.39,0.36c-0.21-0.01-0.37-0.18-0.36-0.39c0-0.09,0-0.17,0.01-0.26h0.75
			C-9.45-31.66-9.45-31.57-9.45-31.47z"/>
		<rect x="-21.63" y="-54.92" class="st5" width="0.38" height="14.08"/>
		<path class="st5" d="M-21.25-40.61c0-0.1-0.08-0.19-0.18-0.19l-0.19,0v-0.03h0.38L-21.25-40.61
			C-21.25-40.62-21.25-40.61-21.25-40.61z"/>
		<path class="st5" d="M-21.31-40.48c0.01-0.01,0.01-0.03,0.02-0.05C-21.29-40.52-21.29-40.5-21.31-40.48z"/>
		<path class="st5" d="M-21.44-40.43C-21.44-40.43-21.44-40.43-21.44-40.43c0.04,0,0.06-0.02,0.09-0.04
			C-21.37-40.45-21.4-40.43-21.44-40.43z"/>
		<path class="st5" d="M-12.79-40.84v-14.08h0.2c0.05,0,0.1-0.01,0.14-0.03l0.04-0.02v14.12H-12.79z"/>
		<path class="st5" d="M-12.41-40.62c0,0.1-0.08,0.19-0.19,0.19s-0.19-0.08-0.19-0.19v-0.23h0.38V-40.62z"/>
		<path class="st5" d="M-31.8-36.35v4.87l-0.01,0c-0.01,0-0.02,0-0.02,0c-0.09,0-0.17,0.07-0.19,0.16c-0.01,0.1,0.06,0.2,0.16,0.21
			l0.06,0.01v0.99l-0.38-0.05v-7.05L-31.8-36.35z"/>
		<path class="st5" d="M-31.8-41.04l-0.16,0c0,0,0,0,0,0c-0.07,0-0.12,0.04-0.15,0.1c-0.01-0.05-0.03-0.08-0.06-0.11v-9.45
			c0-0.1,0.07-0.18,0.17-0.19l2.92-0.26v0.16c0,0.08,0.03,0.15,0.08,0.22l-2.79,0.25V-41.04z"/>
		<polygon class="st5" points="-31.97,-40.18 -31.96,-40.67 -31.8,-40.66 -31.8,-36.35 -32.17,-37.2 -32.17,-40.18 		"/>
		<path class="st5" d="M-32.17-40.86v-0.19c0.03,0.03,0.05,0.07,0.06,0.11c-0.02,0.03-0.03,0.05-0.04,0.08L-32.17-40.86z"/>
		<path class="st5" d="M-6.48-58.15L-6.48-58.15C-6.49-58.15-6.48-58.15-6.48-58.15z"/>
		<path class="st5" d="M-6.4-58.17c0.02,0,0.04-0.01,0.06-0.01c0,0,0.01,0,0.01,0h-0.01C-6.36-58.18-6.38-58.17-6.4-58.17z"/>
		<path class="st5" d="M-6.27-57.42h0.29L-7.4-19.44l0-0.02c-0.01-0.2-0.18-0.35-0.38-0.35h-0.36l1.4-37.42L-6.27-57.42z"/>
		<path class="st5" d="M-23.57-40.71c-0.05,0.07-0.1,0.15-0.15,0.23l-8.08-0.18v-0.38l8.65,0.2h-0.13
			C-23.39-40.84-23.5-40.79-23.57-40.71z"/>
		<path class="st5" d="M-21.25-40.61c0,0.03-0.02,0.05-0.04,0.08C-21.27-40.56-21.25-40.58-21.25-40.61
			C-21.25-40.61-21.25-40.61-21.25-40.61z"/>
		<path class="st5" d="M-21.34-40.47c0.01-0.01,0.03-0.01,0.04-0.02C-21.32-40.47-21.33-40.47-21.34-40.47z"/>
		<path class="st5" d="M-21.63-40.62c0,0.1,0.08,0.19,0.19,0.19c0,0,0,0,0,0l-2.28-0.05c0.05-0.08,0.1-0.16,0.15-0.23
			c0.07-0.09,0.18-0.14,0.29-0.14h0.13l1.52,0.03V-40.62z"/>
		<path class="st5" d="M-21.63-40.62v-0.19l0.19,0c0.1,0,0.18,0.09,0.18,0.19c0,0.03-0.02,0.06-0.03,0.08
			c-0.01,0.02-0.01,0.04-0.02,0.05c-0.01,0.01-0.03,0.01-0.04,0.02c-0.03,0.02-0.06,0.04-0.09,0.04
			C-21.54-40.43-21.63-40.51-21.63-40.62z"/>
		<path class="st5" d="M-31.96-40.67l0-0.19l-0.16-0.01c0.01-0.02,0.02-0.03,0.02-0.05c0-0.01-0.01-0.02-0.01-0.03
			c0.03-0.06,0.08-0.1,0.15-0.1c0,0,0,0,0,0l0.16,0v0.38L-31.96-40.67z"/>
		<path class="st5" d="M-32.12-40.86l-0.03,0c0-0.03,0.02-0.06,0.04-0.08c0,0.01,0.01,0.02,0.01,0.03
			C-32.1-40.89-32.12-40.88-32.12-40.86z"/>
		<path class="st5" d="M-52.61-28.17c0.45,0.32,2.78,0.32,3.23,0v-3.64l0.75,0.11v3.61c0,0.67-1.06,0.86-1.93,0.9v-0.19
			c0-0.21-0.17-0.38-0.38-0.38c-0.21,0-0.38,0.17-0.38,0.38v0.2c-0.88-0.03-2.06-0.2-2.06-0.91v-4.28l0.75,0.11V-28.17z"/>
		<path class="st5" d="M-54.58-49.34l0.07,0.37l0.11-0.02v7.17l-0.18-0.01c0,0,0,0-0.01,0c-0.05,0-0.1,0.02-0.13,0.05
			c-0.04,0.04-0.06,0.08-0.06,0.14v-9.72c0.08,0.05,0.18,0.07,0.27,0.05l0.11-0.02v1.95L-54.58-49.34z"/>
		<polygon class="st5" points="-54.51,-48.97 -54.58,-49.34 -54.39,-49.38 -54.39,-49 		"/>
		<path class="st5" d="M-54.39-41.63l-0.19-0.01l0.01,0.19c0,0,0,0-0.01,0c-0.1,0-0.19-0.08-0.19-0.19c0-0.05,0.02-0.1,0.06-0.14
			c0.04-0.03,0.08-0.05,0.13-0.05c0,0,0,0,0.01,0l0.18,0.01L-54.39-41.63C-54.39-41.64-54.39-41.64-54.39-41.63z"/>
		<path class="st5" d="M5.79-58.15L5.79-58.15c-0.02-0.01-0.05-0.01-0.08-0.02C5.73-58.16,5.76-58.16,5.79-58.15z"/>
		<path class="st5" d="M-6.48-58.15c0.03-0.01,0.05-0.01,0.08-0.02C-6.43-58.16-6.46-58.16-6.48-58.15L-6.48-58.15z"/>
		<path class="st5" d="M12.04-55.3c-0.03-0.04-0.08-0.06-0.14-0.06c-0.01,0-0.01,0.01-0.02,0.01L6.03-57.7l0-0.11
			c-0.01-0.15-0.1-0.28-0.23-0.33l6.18,2.47h1.17v0.38H12.04z"/>
		<path class="st5" d="M5.27-57.8H1.26h-3.09h-4.14c0-0.2-0.16-0.37-0.36-0.38H5.63C5.43-58.17,5.27-58,5.27-57.8z"/>
		<path class="st5" d="M-6.72-57.81l-0.01,0.17l-5.8,2.32c-0.03-0.01-0.05-0.03-0.08-0.03c-0.05,0-0.1,0.02-0.14,0.06h-1.12v-0.38
			h1.19l6.18-2.47C-6.62-58.09-6.71-57.97-6.72-57.81z"/>
		<path class="st5" d="M12.09-54.92v-0.25c0-0.05-0.02-0.09-0.05-0.13h1.1v0.38H12.09z"/>
		<path class="st5" d="M-12.79-54.92h-1.06v-0.38h1.12c-0.03,0.03-0.05,0.08-0.05,0.13V-54.92z"/>
		<path class="st5" d="M-12.41-54.97v-0.21c0-0.07-0.05-0.12-0.11-0.16l5.8-2.32l-0.02,0.41L-12.41-54.97z"/>
		<path class="st5" d="M11.72-55.17v0.21l-5.67-2.27L6.03-57.7l5.86,2.34C11.79-55.35,11.72-55.27,11.72-55.17z"/>
		<path class="st5" d="M5.28-57.42H-5.98l0.01-0.36c0,0,0-0.01,0-0.01h4.14h3.09h4.01c0,0,0,0.01,0,0.01L5.28-57.42z"/>
		<path class="st5" d="M-12.74-55.3c0.03-0.04,0.08-0.06,0.14-0.06c0.03,0,0.05,0.02,0.08,0.03l-0.07,0.03H-12.74z"/>
		<path class="st5" d="M-12.41-55.17v0.21l-0.04,0.02c-0.04,0.02-0.09,0.03-0.14,0.03h-0.2v-0.25c0-0.05,0.02-0.09,0.05-0.13h0.15
			l0.07-0.03C-12.46-55.3-12.41-55.25-12.41-55.17z"/>
		<path class="st5" d="M-5.97-57.8h-0.37l-0.38,0.15l0.01-0.17c0.01-0.15,0.1-0.28,0.23-0.33l0,0c0.03-0.01,0.06-0.01,0.08-0.02
			c0.02,0,0.04-0.01,0.06-0.01h0.01C-6.13-58.17-5.97-58-5.97-57.8z"/>
		<path class="st5" d="M-5.98-57.42h-0.29l-0.47,0.19l0.02-0.41l0.38-0.15h0.37c0,0,0,0.01,0,0.01L-5.98-57.42z"/>
		<path class="st5" d="M56.05-28.97c-0.21,0-0.38,0.17-0.38,0.38v0.3c-1.03-0.02-2.17-0.19-2.17-0.87v-3.34l-0.85,0.12v-0.2
			c0-0.21-0.17-0.38-0.38-0.38s-0.38,0.17-0.38,0.38v0.31l-3.23,0.45v-0.21c0-0.21-0.17-0.38-0.38-0.38c-0.21,0-0.38,0.17-0.38,0.38
			v0.32l-19.54,2.75l-1.04,2.07c-0.06,0.13-0.19,0.21-0.34,0.21h-1.76l-0.04,0.91c-0.05,1.1-0.95,1.97-2.05,1.97H9.96l-0.82,4.44
			c-0.03,0.18-0.19,0.31-0.37,0.31H7.43l-4.79,78c-0.01,0.2-0.18,0.35-0.38,0.35h-5.24c-0.2,0-0.36-0.15-0.38-0.35l-4.79-78h-1.34
			c-0.18,0-0.34-0.13-0.37-0.31l-0.82-4.44h-13.2c-1.1,0-2-0.86-2.05-1.97l-0.04-0.91h-1.76c-0.14,0-0.27-0.08-0.34-0.21l-1.04-2.07
			l-19.54-2.75v-0.32c0-0.21-0.17-0.38-0.38-0.38c-0.21,0-0.38,0.17-0.38,0.38v0.21l-3.23-0.45v-0.31c0-0.21-0.17-0.38-0.38-0.38
			s-0.38,0.17-0.38,0.38v0.2l-0.85-0.12v3.34c0,0.66-1.08,0.84-2.1,0.87v-0.3c0-0.21-0.17-0.38-0.38-0.38
			c-0.21,0-0.38,0.17-0.38,0.38v0.29c-0.95-0.04-1.9-0.24-1.9-0.86V-54.3c0-0.96,1.82-1.04,2.38-1.04c0.56,0,2.38,0.07,2.38,1.04
			v2.16l25.41-5.52c0.11-0.02,0.23,0,0.32,0.07c0.09,0.07,0.14,0.18,0.14,0.29v6.12h4.75v-4.12c0-0.21,0.17-0.38,0.38-0.38h3v0.38
			h-1.09c-0.03-0.04-0.08-0.06-0.14-0.06c-0.05,0-0.1,0.02-0.14,0.06h-1.64v4.5h-5.32c0-0.01,0.01-0.01,0.01-0.02
			c-0.01-0.1-0.09-0.17-0.19-0.17c0,0,0,0,0,0v-6.31l-11.23,2.44l0.15,0.35l-14.6,3.17v-0.34c0-0.1-0.08-0.19-0.19-0.19
			c-0.1,0-0.19,0.08-0.19,0.19v0.32c-0.02-0.01-0.03-0.01-0.05-0.02c-0.09-0.07-0.14-0.18-0.14-0.29v-2.6
			c-0.11-0.11-0.67-0.31-1.62-0.31c-0.95,0-1.52,0.2-1.62,0.31v25.02c0.48,0.29,2.76,0.29,3.25,0v-3.68c0-0.11,0.05-0.21,0.13-0.28
			c0.02-0.01,0.04-0.02,0.06-0.03v0.32c0,0.1,0.08,0.19,0.19,0.19c0.1,0,0.19-0.08,0.19-0.19v-0.35l8.79,1.24v0.14l2.55,0.5v-0.29
			l1.16,0.16v0.22l2.55,0.5v-0.37l7.17,1.01v0.13c0,0.1,0.08,0.19,0.19,0.19c0.1,0,0.19-0.08,0.19-0.19v-0.08l2.93,0.41l1.16,2.63
			h1.74v0c0,0.21,0.17,0.38,0.38,0.38c0.01,0,0.01,0,0.02,0l0.04,0.9c0.04,0.9,0.78,1.61,1.68,1.61h13.15
			c0,0.21,0.17,0.38,0.38,0.38c0.02,0,0.04-0.01,0.06-0.01l0.81,4.38h1.32c0,0.2,0.16,0.37,0.36,0.38c0.01,0,0.02-0.01,0.04-0.01
			l1.9,30.98l0.48,1.67l1.82,29.58l-0.28-0.69c-0.03-0.07-0.1-0.12-0.17-0.12c-0.02,0-0.05,0-0.07,0.01
			c-0.1,0.04-0.14,0.15-0.1,0.25l0.7,1.72l0.87,14.2h4.53L2.8,44.24l0.66-1.61c0.04-0.1-0.01-0.21-0.1-0.25
			c-0.02-0.01-0.05-0.01-0.07-0.01c-0.07,0-0.14,0.04-0.17,0.12l-0.24,0.58l1.77-28.9l0.64-2.24l1.9-31
			c0.15-0.05,0.27-0.19,0.27-0.35H8.9l0.81-4.39c0.17-0.03,0.31-0.18,0.31-0.36h13.27c0.9,0,1.64-0.71,1.68-1.61L25-26.7
			c0.15-0.05,0.27-0.18,0.27-0.35v0h1.87l1.17-2.65l2.79-0.39v0.08c0,0.1,0.08,0.19,0.19,0.19s0.19-0.08,0.19-0.19v-0.13l7.05-0.99
			v0.35l2.55-0.5v-0.21l1.16-0.16v0.27l2.55-0.5v-0.13l8.91-1.25v0.35c0,0.1,0.08,0.19,0.19,0.19c0.1,0,0.19-0.08,0.19-0.19v-0.32
			c0.02,0.01,0.04,0.02,0.06,0.03c0.08,0.07,0.13,0.18,0.13,0.28v3.68c0.48,0.29,2.76,0.29,3.25,0v-25.02
			c-0.11-0.11-0.67-0.31-1.62-0.31c-0.95,0-1.52,0.2-1.62,0.31v2.6c0,0.11-0.05,0.22-0.14,0.29c-0.01,0.01-0.03,0.01-0.05,0.02
			v-0.32c0-0.1-0.08-0.19-0.19-0.19c-0.1,0-0.19,0.08-0.19,0.19v0.34l-14.49-3.15l0.17-0.38L28.14-57.3v2.9l-0.1-0.02l-0.07,0.37
			l0.17,0.03v3.03l-0.11-0.01c-0.01,0-0.01,0-0.02,0c-0.1,0-0.18,0.07-0.19,0.17c0,0.01,0.01,0.01,0.01,0.02h-5.19v-4.5h-1.77
			c-0.03-0.04-0.08-0.06-0.14-0.06c-0.05,0-0.1,0.02-0.14,0.06H19.5v-0.38h3.02c0.21,0,0.38,0.17,0.38,0.38v4.12h4.75v-6.12
			c0-0.11,0.05-0.22,0.14-0.29c0.07-0.05,0.15-0.08,0.24-0.08c0.03,0,0.05,0,0.08,0.01l25.41,5.52v-2.16c0-0.96,1.82-1.04,2.38-1.04
			c0.56,0,2.38,0.07,2.38,1.04v25.14c0,0.6-0.9,0.81-1.83,0.86v-0.29C56.43-28.8,56.26-28.97,56.05-28.97z"/>
		<polygon class="st5" points="44.78,-31.9 42.24,-31.4 42.24,-31.67 44.78,-32.03 		"/>
		<polygon class="st5" points="41.08,-31.3 38.53,-30.8 38.53,-31.15 41.08,-31.51 		"/>
		<polygon class="st5" points="-43.05,-31.4 -45.6,-31.9 -45.6,-32.05 -43.05,-31.69 		"/>
		<polygon class="st5" points="-39.35,-30.8 -41.89,-31.3 -41.89,-31.53 -39.35,-31.17 		"/>
		<polygon class="st5" points="28.39,-54.35 28.14,-54.4 28.14,-57.3 39.37,-54.86 39.21,-54.48 28.39,-56.83 		"/>
		<polygon class="st5" points="28.39,-50.96 28.14,-50.98 28.14,-54.01 28.39,-53.97 		"/>
		<path class="st5" d="M7.44-19.81h1.01l0.75-4.05c0.14,0.03,0.28,0.06,0.43,0.06c0.02,0,0.05-0.01,0.07-0.01L8.9-19.44H7.45
			c0,0,0-0.01,0-0.01L7.44-19.81z"/>
		<path class="st5" d="M28-50.61l0.32,0.03c-0.07,0.09-0.17,0.16-0.3,0.16h-5.5c-0.21,0-0.38-0.17-0.38-0.38v-4.12h-1.21v-0.25
			c0-0.05-0.02-0.09-0.05-0.13h1.77v4.5h5.19C27.83-50.71,27.9-50.62,28-50.61z"/>
		<path class="st5" d="M26.78-27.43l1.02-2.04c0.06-0.11,0.16-0.19,0.28-0.2l0.22-0.03l-1.17,2.65h-1.87v-0.38H26.78z"/>
		<path class="st5" d="M9.64-24.56C9.64-24.56,9.64-24.56,9.64-24.56l13.52,0c0.7,0,1.27-0.55,1.3-1.25l0.06-1.27
			c0-0.01,0-0.02,0.01-0.02v0.04c0,0.21,0.17,0.38,0.38,0.38c0.04,0,0.07-0.01,0.11-0.02l-0.04,0.91c-0.04,0.9-0.78,1.61-1.68,1.61
			H10.01v0C10.01-24.39,9.85-24.56,9.64-24.56z"/>
		<path class="st5" d="M-29.09-50.96v-3.02l0.34-0.07l-0.07-0.37l-0.27,0.05v-2.47l-10.7,2.33l-0.15-0.35l11.23-2.44v6.31
			c-0.01,0-0.01,0-0.02,0L-29.09-50.96z"/>
		<path class="st5" d="M6.7-19.42c0.01,0.21,0.18,0.37,0.39,0.36c0.03,0,0.06-0.01,0.09-0.02l-1.9,31l-0.64,2.24l2.06-33.6
			L6.7-19.42z"/>
		<path class="st5" d="M-25.22-27.06v-0.04c0,0.01,0.01,0.02,0.01,0.02l0.06,1.27c0.03,0.7,0.6,1.25,1.3,1.25h13.51c0,0,0,0,0,0
			c-0.21,0-0.37,0.17-0.37,0.38v0h-13.15c-0.9,0-1.64-0.71-1.68-1.61l-0.04-0.9C-25.37-26.7-25.22-26.86-25.22-27.06z"/>
		<path class="st5" d="M-7.4-19.42l0-0.02l2.03,33.03l-0.48-1.67l-1.9-30.98C-7.57-19.08-7.41-19.23-7.4-19.42z"/>
		<path class="st5" d="M-28.5-29.48l1.02,2.04h1.51v0.38h-1.74l-1.16-2.63l0.09,0.01C-28.66-29.66-28.56-29.59-28.5-29.48z"/>
		<path class="st5" d="M-21.63-54.92h-1.21v4.12c0,0.21-0.17,0.38-0.38,0.38h-5.5c-0.13,0-0.23-0.07-0.3-0.16l0.32-0.03
			c0.1-0.01,0.16-0.09,0.17-0.19h5.32v-4.5h1.64c-0.03,0.03-0.05,0.08-0.05,0.13V-54.92z"/>
		<path class="st5" d="M-9.15-19.81h1.01l-0.01,0.36c0,0,0,0.01,0,0.01h-1.32l-0.81-4.38c0.13,0,0.25-0.02,0.37-0.05L-9.15-19.81z"
			/>
		<path class="st5" d="M-21.25-54.92v-0.25c0-0.05-0.02-0.09-0.05-0.13h1.09v0.38H-21.25z"/>
		<path class="st5" d="M20.55-54.92H19.5v-0.38h1.11c-0.03,0.03-0.05,0.08-0.05,0.13V-54.92z"/>
		<polygon class="st5" points="-28.82,-54.42 -28.74,-54.05 -29.09,-53.98 -29.09,-54.36 		"/>
		<polygon class="st5" points="27.97,-54.05 28.04,-54.42 28.14,-54.4 28.14,-54.01 		"/>
		<polygon class="st5" points="28.39,-53.97 28.14,-54.01 28.14,-54.4 28.39,-54.35 		"/>
		<path class="st5" d="M-54.39-33.28v0.35c0,0.1-0.08,0.19-0.19,0.19c-0.1,0-0.19-0.08-0.19-0.19v-0.32
			c0.07-0.04,0.16-0.07,0.24-0.06L-54.39-33.28z"/>
		<path class="st5" d="M-25.57-26.69c-0.01,0-0.01,0-0.02,0c-0.21,0-0.38-0.17-0.38-0.38v0h0.38L-25.57-26.69z"/>
		<path class="st5" d="M-10.27-23.81c-0.02,0-0.04,0.01-0.06,0.01c-0.21,0-0.38-0.17-0.38-0.38h0.37L-10.27-23.81z"/>
		<path class="st5" d="M-25.59-27.43c0.19,0,0.35,0.15,0.37,0.34v0.04c0,0.2-0.16,0.36-0.35,0.37l-0.02-0.37h-0.38v-0.38H-25.59z"/>
		<path class="st5" d="M-10.34-24.56c0.18,0,0.33,0.13,0.37,0.31l0.07,0.39c-0.12,0.03-0.25,0.05-0.37,0.05l-0.07-0.37h-0.37v0
			C-10.71-24.39-10.54-24.56-10.34-24.56z"/>
		<path class="st5" d="M-21.44-55.36c0.05,0,0.1,0.02,0.14,0.06h-0.27C-21.54-55.34-21.49-55.36-21.44-55.36z"/>
		<path class="st5" d="M-21.25-54.92h-0.38v-0.25c0-0.05,0.02-0.09,0.05-0.13h0.27c0.03,0.03,0.05,0.08,0.05,0.13V-54.92z"/>
		<path class="st5" d="M-31.8-30.03c0,0.1-0.08,0.19-0.19,0.19c-0.1,0-0.19-0.08-0.19-0.19v-0.13l0.38,0.05V-30.03z"/>
		<path class="st5" d="M-28.71-50.99C-28.71-50.99-28.71-50.99-28.71-50.99c0.1,0,0.18,0.07,0.19,0.17c0,0.01-0.01,0.01-0.01,0.02
			h-0.18V-50.99z"/>
		<path class="st5" d="M-28.69-50.61l-0.32,0.03c-0.04-0.06-0.08-0.13-0.08-0.22v-0.16l0.36-0.03c0.01,0,0.01,0,0.02,0v0.19h0.18
			C-28.53-50.71-28.6-50.62-28.69-50.61z"/>
		<path class="st5" d="M-7.75-19.06c-0.01,0-0.02,0.01-0.04,0.01c-0.2-0.01-0.36-0.17-0.36-0.38h0.37L-7.75-19.06z"/>
		<path class="st5" d="M-8.14-19.81h0.36c0.2,0,0.36,0.15,0.38,0.35l0,0.02l0,0.02c-0.01,0.19-0.17,0.35-0.35,0.36l-0.02-0.37h-0.37
			c0,0,0-0.01,0-0.01L-8.14-19.81z"/>
		<path class="st5" d="M-52.98-32.96c0.21,0,0.38,0.17,0.38,0.38v0.31l-0.75-0.11v-0.2C-53.36-32.79-53.19-32.96-52.98-32.96z"/>
		<path class="st5" d="M-49.38-32.03c0-0.21,0.17-0.38,0.38-0.38c0.21,0,0.38,0.17,0.38,0.38v0.32l-0.75-0.11V-32.03z"/>
		<path class="st5" d="M-54.77-51.36v-0.32c0-0.1,0.08-0.19,0.19-0.19c0.1,0,0.19,0.08,0.19,0.19v0.34l-0.11,0.02
			C-54.59-51.29-54.69-51.31-54.77-51.36z"/>
		<path class="st5" d="M53.7-40.05l0.06-1.45c0.03,0.03,0.08,0.05,0.12,0.05c0.1,0,0.19-0.08,0.19-0.19v8.39
			c-0.07-0.04-0.15-0.07-0.24-0.06l-0.14,0.02L53.7-40.05L53.7-40.05z"/>
		<polygon class="st5" points="53.7,-41.64 33.25,-40.93 33.35,-41.16 41.5,-41.43 41.5,-41.32 41.88,-41.32 41.88,-41.44 
			45.68,-41.56 45.68,-41.38 46.05,-41.38 46.05,-41.58 53.69,-41.82 53.69,-41.64 		"/>
		<path class="st5" d="M31.48-41.06c0.03-0.03,0.07-0.05,0.11-0.05l1.76-0.06l-0.1,0.24l-1.77,0.06V-41.06z"/>
		<polygon class="st5" points="46.05,-41.38 45.68,-41.38 45.68,-41.56 46.05,-41.58 		"/>
		<polygon class="st5" points="41.88,-41.32 41.5,-41.32 41.5,-41.43 41.88,-41.44 		"/>
		<path class="st5" d="M54.07-33.25v0.32c0,0.1-0.08,0.19-0.19,0.19c-0.1,0-0.19-0.08-0.19-0.19v-0.35l0.14-0.02
			C53.92-33.32,54-33.29,54.07-33.25z"/>
		<path class="st5" d="M7.78-25.67v-2.14c0-0.01,0-0.01,0-0.02v0.09c0,0.21,0.17,0.38,0.38,0.38c0.21,0,0.38-0.17,0.38-0.38v-0.28
			h15.99v0.21c0,0.21,0.17,0.38,0.38,0.38c0.21,0,0.38-0.17,0.38-0.38v0.38h-0.38c-0.19,0-0.35,0.15-0.37,0.34v-0.34H8.53v1.77
			c0,0.61,0.5,1.11,1.11,1.11c0,0,0,0,0,0c-0.18,0-0.33,0.13-0.37,0.31L9.2-23.86C8.39-24.06,7.78-24.8,7.78-25.67z"/>
		<rect x="8.54" y="-28.19" class="st5" width="15.99" height="0.17"/>
		<path class="st5" d="M25.27-27.06L25.27-27.06c0,0.17-0.11,0.31-0.27,0.35l0.02-0.35H25.27z"/>
		<path class="st5" d="M10.01-24.18c0,0.18-0.13,0.33-0.31,0.36l0.07-0.36H10.01z"/>
		<path class="st5" d="M9.2-23.86l0.07-0.39c0.03-0.18,0.19-0.31,0.37-0.31c0.21,0,0.37,0.17,0.37,0.38v0H9.77l-0.07,0.36
			c-0.02,0-0.05,0.01-0.07,0.01C9.49-23.81,9.34-23.83,9.2-23.86z"/>
		<path class="st5" d="M24.52-27.06v-0.04c0.02-0.19,0.18-0.34,0.37-0.34h0.38v0.38h-0.25L25-26.7c-0.03,0.01-0.07,0.02-0.11,0.02
			C24.69-26.68,24.52-26.85,24.52-27.06z"/>
		<path class="st5" d="M24.9-28.19h-0.16v-1.54h-0.22V-31H8.54v1.27h-0.3v1.54H8.15c-0.2,0-0.36,0.16-0.37,0.36v-3.54
			c0-0.21,0.17-0.38,0.38-0.38h0.59c0,0.1,0,0.18,0.01,0.28c0.01,0.2,0.17,0.36,0.38,0.36c0,0,0.01,0,0.01,0
			c0.21-0.01,0.37-0.18,0.36-0.39c0-0.09,0-0.17-0.01-0.26h14.02c0,0.1,0,0.19-0.01,0.28c-0.01,0.21,0.16,0.38,0.37,0.39
			c0.2,0.01,0.38-0.16,0.39-0.37c0-0.03,0-0.14,0.01-0.3h0.62c0.21,0,0.38,0.17,0.38,0.38v0.79l-0.39,0.05
			c-0.1,0.01-0.17,0.11-0.16,0.21c0.01,0.1,0.11,0.17,0.21,0.16l0.33-0.05v2.39C25.27-28.02,25.1-28.19,24.9-28.19z"/>
		<rect x="8.23" y="-29.73" class="st5" width="0.3" height="1.54"/>
		<rect x="24.52" y="-29.73" class="st5" width="0.22" height="1.54"/>
		<path class="st5" d="M24.9-27.44c-0.21,0-0.38-0.17-0.38-0.38v-0.21h0.22v-0.17h0.16c0.21,0,0.38,0.17,0.38,0.38
			C25.27-27.61,25.1-27.44,24.9-27.44z"/>
		<path class="st5" d="M8.15-28.19h0.08v0.17h0.3v0.28c0,0.21-0.17,0.38-0.38,0.38c-0.21,0-0.38-0.17-0.38-0.38v-0.09
			C7.79-28.03,7.95-28.19,8.15-28.19z"/>
		<rect x="24.52" y="-28.19" class="st5" width="0.22" height="0.17"/>
		<rect x="8.23" y="-28.19" class="st5" width="0.3" height="0.17"/>
		<polygon class="st5" points="20.93,-40.84 22.45,-40.84 20.93,-40.81 		"/>
		<path class="st5" d="M11.9-40.43c0.1,0,0.19-0.08,0.19-0.19v-0.23h8.46v0.23c0,0,0,0,0,0c0,0,0,0,0,0c0,0.03,0.02,0.05,0.03,0.07
			c0.01,0.02,0.01,0.04,0.03,0.06c0.01,0.01,0.03,0.01,0.05,0.02c0.03,0.02,0.05,0.04,0.09,0.04c0,0,0,0,0,0c0,0,0,0,0,0l2.28-0.05
			c1.27,1.95,1.27,7.4,1.26,8.73h-0.75c0.03-2.07-0.11-6.82-1.13-8.34H10.42c-0.27,0.64-1.07,3.01-0.92,8.34H8.75
			c-0.18-6.62,1.06-8.82,1.11-8.91c0.07-0.11,0.19-0.18,0.32-0.18h1.53v0.23C11.72-40.51,11.8-40.43,11.9-40.43z"/>
		<path class="st5" d="M24.27-31.46c-0.01,0.21-0.19,0.38-0.39,0.37c-0.21-0.01-0.37-0.18-0.37-0.39c0-0.08,0-0.18,0.01-0.28h0.75
			C24.28-31.6,24.27-31.49,24.27-31.46z"/>
		<path class="st5" d="M9.51-31.5c0.01,0.21-0.16,0.38-0.36,0.39c0,0-0.01,0-0.01,0c-0.2,0-0.37-0.16-0.38-0.36
			c0-0.1,0-0.19-0.01-0.28H9.5C9.51-31.66,9.51-31.58,9.51-31.5z"/>
		<rect x="20.55" y="-54.92" class="st5" width="0.38" height="14.08"/>
		<path class="st5" d="M20.74-55.36c0.05,0,0.1,0.02,0.14,0.06H20.6C20.64-55.34,20.69-55.36,20.74-55.36z"/>
		<path class="st5" d="M20.93-54.92h-0.38v-0.25c0-0.05,0.02-0.09,0.05-0.13h0.27c0.03,0.03,0.05,0.08,0.05,0.13V-54.92z"/>
		<path class="st5" d="M20.74-40.43c-0.03,0-0.06-0.02-0.09-0.04C20.68-40.45,20.71-40.43,20.74-40.43
			C20.74-40.43,20.74-40.43,20.74-40.43z"/>
		<path class="st5" d="M20.74-40.8c-0.1,0-0.18,0.09-0.18,0.19c0,0,0,0,0,0v-0.23h0.38v0.03L20.74-40.8z"/>
		<path class="st5" d="M20.58-40.54c0.01,0.02,0.01,0.04,0.03,0.06C20.59-40.5,20.59-40.52,20.58-40.54z"/>
		<path class="st5" d="M11.72-40.84v-14.12l0.04,0.02c0.04,0.02,0.09,0.03,0.14,0.03h0.2v14.08H11.72z"/>
		<path class="st5" d="M11.89-55.35c0.01,0,0.01-0.01,0.02-0.01c0.05,0,0.1,0.02,0.14,0.06h-0.02L11.89-55.35z"/>
		<path class="st5" d="M12.09-54.92h-0.2c-0.05,0-0.1-0.01-0.14-0.03l-0.04-0.02v-0.21c0-0.1,0.08-0.17,0.17-0.18l0.14,0.05h0.02
			c0.03,0.03,0.05,0.08,0.05,0.13V-54.92z"/>
		<path class="st5" d="M12.09-40.62c0,0.1-0.08,0.19-0.19,0.19c-0.1,0-0.19-0.08-0.19-0.19v-0.23h0.38V-40.62z"/>
		<path class="st5" d="M31.21-31.04c0.1-0.01,0.17-0.11,0.16-0.21c-0.01-0.09-0.09-0.16-0.19-0.16c-0.01,0-0.02,0-0.03,0L31.1-31.4
			v-4.65l0.38-0.86v6.75L31.1-30.1v-0.92L31.21-31.04z"/>
		<path class="st5" d="M31.48-50.51v9.45c-0.03,0.03-0.05,0.07-0.06,0.11c-0.03-0.06-0.08-0.1-0.15-0.1c0,0,0,0,0,0l-0.16,0v-9.29
			l-2.79-0.25c0.04-0.06,0.08-0.13,0.08-0.22v-0.16l2.92,0.26C31.4-50.68,31.48-50.6,31.48-50.51z"/>
		<polygon class="st5" points="31.15,-40.66 31.15,-40.18 31.48,-40.18 31.48,-36.91 31.1,-36.05 31.1,-40.66 		"/>
		<path class="st5" d="M27.83-50.8c0-0.01-0.01-0.01-0.01-0.02c0.01-0.1,0.09-0.17,0.19-0.17c0.01,0,0.01,0,0.02,0l0.11,0.01v0.18
			H27.83z"/>
		<path class="st5" d="M31.48-30.03c0,0.1-0.08,0.19-0.19,0.19s-0.19-0.08-0.19-0.19v-0.08l0.38-0.05V-30.03z"/>
		<path class="st5" d="M28.39-50.8c0,0.08-0.03,0.15-0.08,0.22L28-50.61c-0.1-0.01-0.16-0.09-0.17-0.19h0.31v-0.18l0.25,0.02V-50.8z
			"/>
		<path class="st5" d="M31.45-40.87c0-0.03-0.02-0.05-0.03-0.08c0.01-0.05,0.03-0.08,0.06-0.11v0.19L31.45-40.87z"/>
		<path class="st5" d="M5.79-58.15L5.79-58.15C5.79-58.15,5.79-58.15,5.79-58.15z"/>
		<path class="st5" d="M5.63-58.18c0,0,0.01,0,0.01,0c0.02,0,0.04,0.01,0.06,0.01c-0.02,0-0.04-0.01-0.06-0.01H5.63z"/>
		<path class="st5" d="M6.04-57.24l1.4,37.42H7.08c-0.2,0-0.36,0.15-0.38,0.35l0,0.02L5.28-57.42h0.29L6.04-57.24z"/>
		<path class="st5" d="M6.02-57.81l0,0.11l-0.25-0.1h-0.5c0-0.2,0.16-0.37,0.36-0.38h0.01c0.02,0,0.04,0.01,0.06,0.01
			c0.03,0,0.06,0.01,0.08,0.02l0,0C5.92-58.09,6.02-57.97,6.02-57.81z"/>
		<path class="st5" d="M5.57-57.42H5.28l-0.01-0.36c0,0,0-0.01,0-0.01h0.5l0.25,0.1l0.02,0.46L5.57-57.42z"/>
		<path class="st5" d="M7.45-19.44c0,0.17-0.11,0.31-0.27,0.35l0.02-0.35H7.45z"/>
		<path class="st5" d="M6.7-19.42l0-0.02l0-0.02c0.01-0.2,0.18-0.35,0.38-0.35h0.36l0.01,0.36c0,0,0,0.01,0,0.01H7.21l-0.02,0.35
			c-0.03,0.01-0.06,0.02-0.09,0.02C6.89-19.05,6.71-19.21,6.7-19.42z"/>
		<path class="st5" d="M22.58-40.84h-0.13l8.65-0.2v0.38l-8.08,0.18c-0.05-0.08-0.1-0.16-0.15-0.23
			C22.8-40.79,22.69-40.84,22.58-40.84z"/>
		<path class="st5" d="M20.61-40.48c0.01,0.01,0.03,0.01,0.05,0.02C20.64-40.47,20.62-40.47,20.61-40.48z"/>
		<path class="st5" d="M20.55-40.61C20.55-40.61,20.55-40.61,20.55-40.61c0,0.03,0.02,0.05,0.03,0.07
			C20.57-40.56,20.55-40.58,20.55-40.61z"/>
		<path class="st5" d="M20.74-40.43c0.1,0,0.19-0.08,0.19-0.19v-0.19l1.52-0.03h0.13c0.11,0,0.22,0.05,0.29,0.14
			c0.05,0.07,0.1,0.15,0.15,0.23L20.74-40.43C20.74-40.43,20.74-40.43,20.74-40.43z"/>
		<path class="st5" d="M20.74-40.8l0.19,0v0.19c0,0.1-0.08,0.19-0.19,0.19c-0.03,0-0.06-0.02-0.09-0.03
			c-0.01-0.01-0.03-0.01-0.05-0.02c-0.02-0.01-0.02-0.04-0.03-0.06c-0.01-0.02-0.03-0.04-0.03-0.07
			C20.55-40.72,20.63-40.8,20.74-40.8z"/>
		<path class="st5" d="M31.26-41.04C31.26-41.04,31.26-41.04,31.26-41.04c0.07,0,0.12,0.04,0.16,0.1c0,0.01-0.01,0.02-0.01,0.03
			c0,0.02,0.01,0.03,0.02,0.05l-0.28,0.01l0,0.19l-0.05,0v-0.38L31.26-41.04z"/>
		<path class="st5" d="M31.42-40.86c0-0.02-0.02-0.03-0.02-0.05c0-0.01,0.01-0.02,0.01-0.03c0.01,0.02,0.03,0.05,0.03,0.08
			L31.42-40.86z"/>
		<path class="st5" d="M48.68-28.17c0.45,0.32,2.78,0.32,3.23,0v-4.1l0.75-0.11v4.28c0,0.69-1.12,0.87-1.99,0.9v-0.2
			c0-0.21-0.17-0.38-0.38-0.38s-0.38,0.17-0.38,0.38v0.2c-0.87-0.04-1.99-0.21-1.99-0.91v-3.61l0.75-0.11V-28.17z"/>
		<path class="st5" d="M48.3-32.41c0.21,0,0.38,0.17,0.38,0.38v0.21l-0.75,0.11v-0.32C47.93-32.24,48.09-32.41,48.3-32.41z"/>
		<path class="st5" d="M51.91-32.58c0-0.21,0.17-0.38,0.38-0.38s0.38,0.17,0.38,0.38v0.2l-0.75,0.11V-32.58z"/>
		<path class="st5" d="M54.01-41.78c-0.04-0.03-0.08-0.05-0.13-0.05c0,0,0,0-0.01,0l-0.18,0.01v-7.16l0.04,0.01l0.07-0.37
			l-0.11-0.02v-1.97l0.11,0.02c0.09,0.02,0.19,0,0.27-0.05v9.72C54.07-41.69,54.05-41.74,54.01-41.78z"/>
		<polygon class="st5" points="53.8,-49.34 53.73,-48.97 53.69,-48.98 53.69,-49.36 		"/>
		<path class="st5" d="M53.69-51.33v-0.34c0-0.1,0.08-0.19,0.19-0.19c0.1,0,0.19,0.08,0.19,0.19v0.32
			c-0.08,0.05-0.17,0.07-0.27,0.05L53.69-51.33z"/>
		<path class="st5" d="M53.7-41.64C53.7-41.64,53.69-41.64,53.7-41.64l0-0.18l0.18-0.01c0,0,0,0,0.01,0c0.05,0,0.1,0.02,0.13,0.05
			c0.04,0.04,0.06,0.08,0.06,0.14c0,0.1-0.08,0.19-0.19,0.19c-0.05,0-0.09-0.02-0.12-0.05l0.01-0.14L53.7-41.64z"/>
		<path class="st5" d="M-56.3-3.14v9.32c0,0.21-0.17,0.38-0.38,0.38c-0.21,0-0.38-0.17-0.38-0.38v-9.32
			c0.12-0.03,0.24-0.04,0.37-0.04C-56.56-3.18-56.43-3.17-56.3-3.14z"/>
		<path class="st5" d="M-56.3-28.29V-3.9c-0.13-0.02-0.25-0.04-0.39-0.04c-0.13,0-0.25,0.02-0.37,0.04v-24.4
			c0.16,0.01,0.32,0.01,0.48,0.01C-56.49-28.29-56.4-28.29-56.3-28.29z"/>
		<path class="st5" d="M-56.68-28.97c0.21,0,0.38,0.17,0.38,0.38v0.3c-0.09,0-0.19,0.01-0.28,0.01c-0.16,0-0.32,0-0.48-0.01v-0.29
			C-57.06-28.8-56.89-28.97-56.68-28.97z"/>
		<path class="st5" d="M-50.55-27.2V-3.9c-0.11-0.02-0.22-0.03-0.34-0.03c-0.14,0-0.28,0.02-0.41,0.04v-23.3
			c0.11,0,0.21,0.01,0.31,0.01C-50.86-27.19-50.7-27.19-50.55-27.2z"/>
		<path class="st5" d="M-50.55-3.15V6.3c0,0.21-0.17,0.38-0.38,0.38c-0.21,0-0.38-0.17-0.38-0.38v-9.43
			c0.13-0.03,0.27-0.05,0.41-0.05C-50.77-3.18-50.66-3.17-50.55-3.15z"/>
		<path class="st5" d="M-50.92-27.77c0.21,0,0.38,0.17,0.38,0.38v0.19c-0.16,0.01-0.31,0.01-0.44,0.01c-0.1,0-0.2,0-0.31-0.01v-0.2
			C-51.3-27.6-51.13-27.77-50.92-27.77z"/>
		<path class="st5" d="M-54.17-1.41c0,0.21-0.17,0.38-0.38,0.38s-0.38-0.17-0.38-0.38c0-0.84-0.59-1.55-1.38-1.73V-3.9
			C-55.1-3.71-54.17-2.67-54.17-1.41z"/>
		<path class="st5" d="M-58.46-1.41c0,0.21-0.17,0.38-0.38,0.38s-0.38-0.17-0.38-0.38c0-1.27,0.94-2.31,2.16-2.49v0.75
			C-57.86-2.98-58.46-2.26-58.46-1.41z"/>
		<path class="st5" d="M-56.3-3.9v0.76c-0.12-0.03-0.25-0.05-0.39-0.05c-0.13,0-0.25,0.01-0.37,0.04V-3.9
			c0.12-0.02,0.24-0.04,0.37-0.04C-56.56-3.94-56.43-3.92-56.3-3.9z"/>
		<path class="st5" d="M-48.37-1.41c0,0.21-0.17,0.38-0.38,0.38s-0.38-0.17-0.38-0.38c0-0.86-0.62-1.58-1.43-1.74V-3.9
			C-49.32-3.73-48.37-2.69-48.37-1.41z"/>
		<path class="st5" d="M-52.66-1.41c0,0.21-0.17,0.38-0.38,0.38s-0.38-0.17-0.38-0.38c0-1.25,0.92-2.28,2.11-2.48v0.76
			C-52.08-2.94-52.66-2.25-52.66-1.41z"/>
		<path class="st5" d="M-50.55-3.9v0.75c-0.11-0.02-0.22-0.03-0.34-0.03c-0.14,0-0.28,0.02-0.41,0.05V-3.9
			c0.14-0.02,0.27-0.04,0.41-0.04C-50.77-3.94-50.66-3.92-50.55-3.9z"/>
		<path class="st5" d="M56.43-3.15v9.32c0,0.21-0.17,0.38-0.38,0.38c-0.21,0-0.38-0.17-0.38-0.38v-9.32
			c0.12-0.03,0.25-0.05,0.39-0.05C56.19-3.18,56.31-3.17,56.43-3.15z"/>
		<path class="st5" d="M56.06-3.94c-0.13,0-0.26,0.02-0.39,0.04v-24.39c0.07,0,0.14,0,0.21,0c0.18,0,0.36-0.01,0.54-0.02v24.4
			C56.31-3.92,56.19-3.94,56.06-3.94z"/>
		<path class="st5" d="M55.67-28.29v-0.3c0-0.21,0.17-0.38,0.38-0.38c0.21,0,0.38,0.17,0.38,0.38v0.29
			c-0.18,0.01-0.37,0.02-0.54,0.02C55.81-28.29,55.74-28.29,55.67-28.29z"/>
		<path class="st5" d="M50.67-3.13V6.3c0,0.21-0.17,0.38-0.38,0.38S49.92,6.5,49.92,6.3v-9.45c0.11-0.02,0.22-0.03,0.34-0.03
			C50.4-3.18,50.54-3.16,50.67-3.13z"/>
		<path class="st5" d="M50.67-27.19v23.3c-0.14-0.02-0.27-0.04-0.41-0.04c-0.12,0-0.23,0.02-0.34,0.03v-23.29
			c0.13,0.01,0.26,0.01,0.37,0.01C50.41-27.19,50.54-27.19,50.67-27.19z"/>
		<path class="st5" d="M50.3-27.77c0.21,0,0.38,0.17,0.38,0.38v0.2c-0.13,0.01-0.26,0.01-0.38,0.01c-0.12,0-0.24,0-0.37-0.01v-0.2
			C49.92-27.6,50.09-27.77,50.3-27.77z"/>
		<path class="st5" d="M58.58-1.41c0,0.21-0.17,0.38-0.38,0.38c-0.21,0-0.38-0.17-0.38-0.38c0-0.85-0.6-1.56-1.4-1.73V-3.9
			C57.64-3.72,58.58-2.68,58.58-1.41z"/>
		<path class="st5" d="M54.29-1.41c0,0.21-0.17,0.38-0.38,0.38s-0.38-0.17-0.38-0.38c0-1.26,0.93-2.3,2.14-2.48v0.76
			C54.88-2.96,54.29-2.26,54.29-1.41z"/>
		<path class="st5" d="M56.43-3.9v0.75c-0.12-0.03-0.24-0.04-0.37-0.04c-0.13,0-0.26,0.02-0.39,0.05V-3.9
			c0.13-0.02,0.25-0.04,0.39-0.04C56.19-3.94,56.31-3.92,56.43-3.9z"/>
		<path class="st5" d="M48.49-1.41c0,0.21-0.17,0.38-0.38,0.38s-0.38-0.17-0.38-0.38c0-1.27,0.95-2.32,2.18-2.49v0.75
			C49.11-2.99,48.49-2.27,48.49-1.41z"/>
		<path class="st5" d="M52.78-1.41c0,0.21-0.17,0.38-0.38,0.38c-0.21,0-0.38-0.17-0.38-0.38c0-0.83-0.58-1.53-1.36-1.72V-3.9
			C51.87-3.7,52.78-2.66,52.78-1.41z"/>
		<path class="st5" d="M50.67-3.9v0.76c-0.13-0.03-0.27-0.05-0.41-0.05c-0.12,0-0.23,0.01-0.34,0.03V-3.9
			c0.11-0.02,0.22-0.03,0.34-0.03C50.4-3.94,50.54-3.92,50.67-3.9z"/>
		<path class="st5" d="M-14.26-55.62v-5.36v-3.69c0-0.53-0.43-0.95-0.95-0.95h-3.67c-0.53,0-0.95,0.43-0.95,0.95v3.69h-0.01v5.3
			h-0.36v-8.97c0-0.77,0.62-1.39,1.39-1.39h3.58c0.77,0,1.39,0.62,1.39,1.39v8.97h-0.22C-14.14-55.68-14.2-55.65-14.26-55.62z"/>
		<path class="st5" d="M-14.6-64.65c0-0.35-0.29-0.64-0.64-0.64h-3.58c-0.35,0-0.64,0.29-0.64,0.64v3.68h-0.39v-3.69
			c0-0.53,0.43-0.95,0.95-0.95h3.67c0.53,0,0.95,0.43,0.95,0.95v3.69h-0.34V-64.65z"/>
		<path class="st5" d="M-19.46-53.22v1.43c0,1.34,1.09,2.43,2.43,2.43s2.43-1.09,2.43-2.43v-1.46c0.21-0.17,0.34-0.43,0.34-0.72
			v-1.02c0.06,0.04,0.12,0.06,0.19,0.06h0.22v3.13c0,1.75-1.43,3.18-3.18,3.18c-1.75,0-3.18-1.43-3.18-3.18v-3.13h0.36
			c0,0,0,0,0.01,0v0.96C-19.84-53.66-19.69-53.39-19.46-53.22z"/>
		<path class="st5" d="M-14.6-53.25v-2.05h0.16c0,0.14,0.08,0.25,0.18,0.32v1.02C-14.26-53.67-14.4-53.42-14.6-53.25z"/>
		<path class="st5" d="M-19.47-55.3h0.02v2.08c-0.23-0.17-0.39-0.44-0.39-0.75v-0.96C-19.64-54.93-19.47-55.1-19.47-55.3z"/>
		<polygon class="st5" points="-19.85,-55.68 -19.85,-55.68 -19.85,-60.97 -19.84,-60.97 -19.84,-55.68 		"/>
		<path class="st5" d="M-19.46-55.3h-0.02c0-0.21-0.16-0.37-0.37-0.37v-5.3h0.39V-55.3z"/>
		<path class="st5" d="M-14.45-55.3h-0.16v-5.67h0.34v5.36C-14.37-55.55-14.45-55.44-14.45-55.3z"/>
		<path class="st5" d="M-14.26-55.3v-0.32c0.06-0.04,0.12-0.06,0.19-0.06h0.22v0.38H-14.26z"/>
		<path class="st5" d="M-14.07-54.92c-0.07,0-0.14-0.03-0.19-0.06v-0.32h0.41v0.38H-14.07z"/>
		<path class="st5" d="M-14.45-55.3h0.18v0.32C-14.37-55.05-14.45-55.17-14.45-55.3z"/>
		<path class="st5" d="M-14.26-55.62v0.32h-0.18C-14.45-55.44-14.37-55.55-14.26-55.62z"/>
		<rect x="-20.21" y="-55.68" class="st5" width="0.36" height="0.38"/>
		<polygon class="st5" points="-19.85,-55.3 -19.84,-55.3 -19.84,-54.93 -19.85,-54.92 -20.21,-54.92 -20.21,-55.3 -19.85,-55.3 		
			"/>
		<path class="st5" d="M-19.84-54.93v-0.37h0.37C-19.47-55.1-19.64-54.93-19.84-54.93z"/>
		<polygon class="st5" points="-19.84,-55.68 -19.84,-55.3 -19.85,-55.3 -19.85,-55.3 -19.85,-55.68 -19.85,-55.68 		"/>
		<path class="st5" d="M-19.47-55.3h-0.37v-0.37C-19.64-55.67-19.47-55.51-19.47-55.3z"/>
		<path class="st5" d="M19.29-64.56c0-0.62-0.5-1.12-1.12-1.12h-3.6c-0.62,0-1.12,0.5-1.12,1.12v8.88h-0.32v-8.97
			c0-0.77,0.62-1.39,1.39-1.39h3.58c0.77,0,1.39,0.62,1.39,1.39v8.97h-0.21V-64.56z"/>
		<path class="st5" d="M19.1-55.67v-5.3h-0.36v-3.68c0-0.35-0.29-0.64-0.64-0.64h-3.58c-0.35,0-0.64,0.29-0.64,0.64v3.68h-0.38v5.3
			c0,0,0,0,0,0h-0.06v-8.88c0-0.62,0.5-1.12,1.12-1.12h3.6c0.62,0,1.12,0.5,1.12,1.12v8.88h-0.17
			C19.11-55.68,19.11-55.67,19.1-55.67z"/>
		<path class="st5" d="M16.32-48.61c-1.75,0-3.18-1.43-3.18-3.18v-3.13h0.32v1.67c0,0.36,0.17,0.67,0.44,0.88v0.58
			c0,1.34,1.09,2.43,2.43,2.43s2.43-1.09,2.43-2.43v-0.5c0.32-0.2,0.54-0.55,0.54-0.95v-1.67h0.21v3.13
			C19.5-50.04,18.07-48.61,16.32-48.61z"/>
		<path class="st5" d="M18.74-52.3v-3h0c0,0.21,0.17,0.38,0.38,0.38h0.17v1.67C19.29-52.84,19.07-52.49,18.74-52.3z"/>
		<path class="st5" d="M13.89-52.37c-0.26-0.2-0.44-0.52-0.44-0.88v-1.67h0.06c0.21,0,0.38-0.17,0.38-0.38h0V-52.37z"/>
		<path class="st5" d="M18.74-60.97h0.36v5.3c-0.2,0.01-0.35,0.17-0.35,0.37h0V-60.97z"/>
		<path class="st5" d="M13.89-55.3c0-0.21-0.17-0.38-0.38-0.38v-5.3h0.38L13.89-55.3L13.89-55.3z"/>
		<rect x="13.14" y="-55.68" class="st5" width="0.32" height="0.38"/>
		<polygon class="st5" points="13.51,-55.68 13.51,-55.3 13.45,-55.3 13.45,-55.68 13.51,-55.68 		"/>
		<rect x="13.14" y="-55.3" class="st5" width="0.32" height="0.38"/>
		<path class="st5" d="M13.89-55.3c0,0.21-0.17,0.38-0.38,0.38h-0.06v-0.38h0.06H13.89z"/>
		<path class="st5" d="M13.89-55.3h-0.38v-0.38C13.72-55.68,13.89-55.51,13.89-55.3z"/>
		<rect x="19.29" y="-55.68" class="st5" width="0.21" height="0.38"/>
		<path class="st5" d="M19.1-55.3v-0.37c0.01,0,0.01,0,0.02,0h0.17v0.38h0H19.1z"/>
		<rect x="19.29" y="-55.3" class="st5" width="0.21" height="0.38"/>
		<path class="st5" d="M19.12-54.92c-0.21,0-0.38-0.17-0.38-0.38h0.35h0.18h0v0.38H19.12z"/>
		<path class="st5" d="M19.1-55.67v0.37h-0.35C18.75-55.5,18.9-55.66,19.1-55.67z"/>
		<polygon class="st5" points="-29.35,-30.79 -31.8,-31.1 -31.8,-31.48 -29.53,-31.19 		"/>
		<polygon class="st5" points="-25.97,-30.75 -25.97,-30.37 -29.35,-30.79 -29.53,-31.19 		"/>
		<path class="st5" d="M-25.61-30.7c0.1,0.01,0.18,0.11,0.16,0.21c-0.01,0.1-0.11,0.18-0.21,0.16l-0.31-0.04v-0.38L-25.61-30.7z"/>
		<path class="st5" d="M-31.86-31.11c-0.1-0.01-0.18-0.11-0.16-0.21c0.01-0.1,0.09-0.16,0.19-0.16c0.01,0,0.02,0,0.02,0l0.01,0v0.38
			L-31.86-31.11z"/>
		<polygon class="st5" points="31.1,-31.4 31.1,-31.02 28.74,-30.69 28.92,-31.1 		"/>
		<polygon class="st5" points="28.92,-31.1 28.74,-30.69 25.27,-30.21 25.27,-30.59 		"/>
		<path class="st5" d="M24.73-30.32c-0.01-0.1,0.06-0.2,0.16-0.21l0.39-0.05v0.38l-0.33,0.05C24.84-30.15,24.74-30.22,24.73-30.32z"
			/>
		<path class="st5" d="M31.16-31.41c0.01,0,0.02,0,0.03,0c0.09,0,0.17,0.07,0.19,0.16c0.01,0.1-0.06,0.2-0.16,0.21l-0.11,0.02v-0.38
			L31.16-31.41z"/>
		<polygon points="2.33,-9.55 3.6,-8.01 2.33,10.67 -3.03,10.67 -4.21,-7.97 -3.03,-9.55 		"/>
		<polygon points="-2.1,-23.52 -3.3,-24.72 -3.3,-28.48 -2.1,-29.68 1.66,-29.68 2.86,-28.48 2.86,-24.72 1.66,-23.52 		"/>
		<polygon points="1.86,-22.65 2.8,-23.7 2.8,-21.76 -3.31,-21.76 -3.31,-23.77 -2.28,-22.65 		"/>
		<polygon points="-2.37,-30.46 -3.31,-29.41 -3.31,-44.08 2.8,-44.08 2.8,-29.34 1.77,-30.46 		"/>
		<path class="st5" d="M-1.94,46.89c-0.1,0-0.19,0.08-0.19,0.19c0,0.1,0.08,0.19,0.19,0.19h-0.24c-0.08,0-0.15-0.05-0.17-0.12
			l-1.14-2.8l-0.07-1.18l1.51,3.72H-1.94z"/>
		<path class="st5" d="M-4.19,42.62c-0.04-0.1,0.01-0.21,0.1-0.25c0.02-0.01,0.05-0.01,0.07-0.01c0.07,0,0.14,0.04,0.17,0.12
			l0.28,0.69l0.07,1.18L-4.19,42.62z"/>
		<path class="st5" d="M1.44,47.26H1.2c0.1,0,0.19-0.08,0.19-0.19c0-0.1-0.08-0.19-0.19-0.19h0.11l1.56-3.83L2.8,44.24l-1.18,2.91
			C1.58,47.22,1.51,47.26,1.44,47.26z"/>
		<path class="st5" d="M3.1,42.48c0.03-0.07,0.1-0.12,0.17-0.12c0.02,0,0.05,0,0.07,0.01c0.1,0.04,0.14,0.15,0.1,0.25L2.8,44.24
			l0.07-1.18L3.1,42.48z"/>
		<path class="st5" d="M1.39,47.07c0,0.1-0.08,0.19-0.19,0.19h-3.14c-0.1,0-0.19-0.08-0.19-0.19c0-0.1,0.08-0.19,0.19-0.19H1.2
			C1.3,46.89,1.39,46.97,1.39,47.07z"/>
		<polygon points="-33.75,-40.78 -33.48,-40.17 -54.39,-40.05 -54.39,-41.45 		"/>
		<path d="M-32.3-40.73c0.05,0,0.09-0.02,0.12-0.04v0.59l-1.31,0.01l-0.27-0.61L-32.3-40.73z"/>
		<path d="M-54.39-41.63l20.58,0.72l0.06,0.14l-20.64-0.67v1.4l-0.13,0l-0.06-1.41C-54.47-41.46-54.4-41.54-54.39-41.63z"/>
		<path d="M-32.17-40.77c-0.03,0.03-0.07,0.05-0.12,0.04l-1.45-0.05l-0.06-0.14l1.63,0.06V-40.77z"/>
		<path d="M-32.14-40.82c0.02,0.09,0.08,0.16,0.17,0.16l0,0l0,0.49l-0.21,0v-0.59C-32.16-40.79-32.15-40.8-32.14-40.82z"/>
		<path d="M-32.15-40.86C-32.15-40.86-32.15-40.86-32.15-40.86c0,0.02,0.01,0.02,0.01,0.04c-0.01,0.02-0.02,0.04-0.04,0.05v-0.09
			L-32.15-40.86z"/>
		<path d="M-32.14-40.82c0.01-0.01,0.01-0.02,0.01-0.04l0.16,0.01l0,0.19l0,0C-32.06-40.67-32.12-40.74-32.14-40.82z"/>
		<path d="M-32.15-40.86C-32.15-40.86-32.15-40.86-32.15-40.86l0.03,0c0,0.01-0.01,0.02-0.01,0.04
			C-32.14-40.84-32.15-40.85-32.15-40.86z"/>
		<path d="M-54.39-41.63c0,0.1-0.08,0.17-0.18,0.18l-0.01-0.19L-54.39-41.63z"/>
		<polygon points="53.69,-41.45 53.69,-40.05 32.91,-40.17 33.18,-40.78 		"/>
		<path d="M31.48-40.77c0.03,0.03,0.07,0.05,0.12,0.04l1.58-0.05l-0.27,0.61l-1.43-0.01V-40.77z"/>
		<path d="M33.18-40.78l0.06-0.15l20.45-0.71c0,0.05,0.03,0.1,0.06,0.13l-0.06,1.45l-0.01,0v-1.4L33.18-40.78z"/>
		<path d="M33.25-40.93l-0.06,0.15l-1.58,0.05c-0.05,0-0.09-0.02-0.12-0.04v-0.09L33.25-40.93z"/>
		<path d="M31.44-40.82c0.01,0.02,0.02,0.04,0.04,0.05v0.6l-0.33,0l0-0.49l0.12,0C31.36-40.67,31.42-40.74,31.44-40.82z"/>
		<path d="M31.44-40.82c0-0.01,0.01-0.02,0.01-0.03c0,0,0,0,0-0.01l0.03,0v0.09C31.46-40.79,31.45-40.8,31.44-40.82z"/>
		<path d="M31.42-40.86c0,0.01,0.01,0.03,0.02,0.04c-0.02,0.09-0.08,0.16-0.17,0.16l-0.12,0l0-0.19L31.42-40.86z"/>
		<path d="M31.45-40.86c0,0.01-0.01,0.02-0.01,0.03c-0.01-0.01-0.01-0.03-0.02-0.04L31.45-40.86
			C31.45-40.86,31.45-40.86,31.45-40.86z"/>
		<path d="M53.7-41.64l0.07,0l-0.01,0.14C53.72-41.54,53.7-41.58,53.7-41.64z"/>
		<polygon points="3.06,-16.39 -3.68,-16.39 -4.36,-19.93 3.75,-19.93 		"/>
	</g>
	<polygon class="st6" points="34.38,47.97 43.67,44.54 34.38,41.1 31.88,28.35 29.38,41.1 20.1,44.54 29.38,47.97 31.88,60.72 	"/>
	<polygon class="st6" points="-27.34,24.22 -18.05,20.78 -27.34,17.35 -29.84,4.6 -32.34,17.35 -41.62,20.78 -32.34,24.22 
		-29.84,36.97 	"/>
	<polygon class="st6" points="45.37,29.68 48.85,28.47 45.37,27.25 44.43,22.74 43.49,27.25 40.01,28.47 43.49,29.68 44.43,34.19 	
		"/>
	<polygon class="st6" points="-39.94,58 -36.46,56.78 -39.94,55.57 -40.88,51.06 -41.81,55.57 -45.29,56.78 -41.81,58 -40.88,62.51 
			"/>
	<polygon class="st6" points="59.99,62.82 62.79,61.84 59.99,60.87 59.24,57.24 58.48,60.87 55.68,61.84 58.48,62.82 59.24,66.45 	
		"/>
	<polygon class="st6" points="-51.85,45.62 -49.05,44.64 -51.85,43.67 -52.6,40.04 -53.36,43.67 -56.16,44.64 -53.36,45.62 
		-52.6,49.25 	"/>
</symbol>
<use xlink:href="#New_Symbol_1"  width="141.73" height="141.73" x="-70.87" y="-70.87" transform="matrix(1 0 0 -1 70.8661 70.8661)" style="overflow:visible;"/>
</svg>
